<mxfile host="app.diagrams.net" agent="Mozilla/5.0 (Windows NT 10.0; Win64; x64) AppleWebKit/537.36 (KHTML, like Gecko) Chrome/134.0.0.0 Safari/537.36 OPR/119.0.0.0" version="27.1.5" pages="14">
  <diagram name="base" id="1VY3gZqymcQamLQqNNGj">
    <mxGraphModel dx="1437" dy="538" grid="1" gridSize="10" guides="1" tooltips="1" connect="1" arrows="1" fold="1" page="1" pageScale="1" pageWidth="827" pageHeight="1169" math="0" shadow="0">
      <root>
        <mxCell id="0" />
        <mxCell id="1" parent="0" />
        <mxCell id="-s7e6Kf5S007aA6jrxE3-1" value="UB" style="whiteSpace=wrap;html=1;aspect=fixed;" vertex="1" parent="1">
          <mxGeometry x="130" y="260" width="60" height="60" as="geometry" />
        </mxCell>
        <mxCell id="-s7e6Kf5S007aA6jrxE3-2" value="UU" style="whiteSpace=wrap;html=1;aspect=fixed;" vertex="1" parent="1">
          <mxGeometry x="190" y="260" width="60" height="60" as="geometry" />
        </mxCell>
        <mxCell id="-s7e6Kf5S007aA6jrxE3-3" value="VR" style="whiteSpace=wrap;html=1;aspect=fixed;" vertex="1" parent="1">
          <mxGeometry x="250" y="260" width="60" height="60" as="geometry" />
        </mxCell>
        <mxCell id="-s7e6Kf5S007aA6jrxE3-4" value="" style="whiteSpace=wrap;html=1;aspect=fixed;" vertex="1" parent="1">
          <mxGeometry x="310" y="260" width="60" height="60" as="geometry" />
        </mxCell>
        <mxCell id="-s7e6Kf5S007aA6jrxE3-5" value="WN" style="whiteSpace=wrap;html=1;aspect=fixed;" vertex="1" parent="1">
          <mxGeometry x="510" y="470" width="60" height="60" as="geometry" />
        </mxCell>
        <mxCell id="-s7e6Kf5S007aA6jrxE3-6" value="XC" style="whiteSpace=wrap;html=1;aspect=fixed;" vertex="1" parent="1">
          <mxGeometry x="570" y="470" width="60" height="60" as="geometry" />
        </mxCell>
        <mxCell id="-s7e6Kf5S007aA6jrxE3-7" value="" style="whiteSpace=wrap;html=1;aspect=fixed;" vertex="1" parent="1">
          <mxGeometry x="630" y="470" width="60" height="60" as="geometry" />
        </mxCell>
        <mxCell id="-s7e6Kf5S007aA6jrxE3-8" value="" style="whiteSpace=wrap;html=1;aspect=fixed;" vertex="1" parent="1">
          <mxGeometry x="690" y="470" width="60" height="60" as="geometry" />
        </mxCell>
        <mxCell id="-s7e6Kf5S007aA6jrxE3-9" value="VE" style="whiteSpace=wrap;html=1;aspect=fixed;" vertex="1" parent="1">
          <mxGeometry x="240" y="470" width="60" height="60" as="geometry" />
        </mxCell>
        <mxCell id="-s7e6Kf5S007aA6jrxE3-10" value="VJ" style="whiteSpace=wrap;html=1;aspect=fixed;" vertex="1" parent="1">
          <mxGeometry x="300" y="470" width="60" height="60" as="geometry" />
        </mxCell>
        <mxCell id="-s7e6Kf5S007aA6jrxE3-11" value="" style="whiteSpace=wrap;html=1;aspect=fixed;" vertex="1" parent="1">
          <mxGeometry x="360" y="470" width="60" height="60" as="geometry" />
        </mxCell>
        <mxCell id="-s7e6Kf5S007aA6jrxE3-12" value="" style="whiteSpace=wrap;html=1;aspect=fixed;" vertex="1" parent="1">
          <mxGeometry x="420" y="470" width="60" height="60" as="geometry" />
        </mxCell>
        <mxCell id="-s7e6Kf5S007aA6jrxE3-13" value="UD" style="whiteSpace=wrap;html=1;aspect=fixed;" vertex="1" parent="1">
          <mxGeometry x="-20" y="470" width="60" height="60" as="geometry" />
        </mxCell>
        <mxCell id="-s7e6Kf5S007aA6jrxE3-14" value="UF" style="whiteSpace=wrap;html=1;aspect=fixed;" vertex="1" parent="1">
          <mxGeometry x="40" y="470" width="60" height="60" as="geometry" />
        </mxCell>
        <mxCell id="-s7e6Kf5S007aA6jrxE3-15" value="UK" style="whiteSpace=wrap;html=1;aspect=fixed;" vertex="1" parent="1">
          <mxGeometry x="100" y="470" width="60" height="60" as="geometry" />
        </mxCell>
        <mxCell id="-s7e6Kf5S007aA6jrxE3-16" value="" style="whiteSpace=wrap;html=1;aspect=fixed;" vertex="1" parent="1">
          <mxGeometry x="160" y="470" width="60" height="60" as="geometry" />
        </mxCell>
        <mxCell id="-s7e6Kf5S007aA6jrxE3-17" value="TH" style="whiteSpace=wrap;html=1;aspect=fixed;" vertex="1" parent="1">
          <mxGeometry x="-290" y="470" width="60" height="60" as="geometry" />
        </mxCell>
        <mxCell id="-s7e6Kf5S007aA6jrxE3-18" value="TQ" style="whiteSpace=wrap;html=1;aspect=fixed;" vertex="1" parent="1">
          <mxGeometry x="-230" y="470" width="60" height="60" as="geometry" />
        </mxCell>
        <mxCell id="-s7e6Kf5S007aA6jrxE3-19" value="" style="whiteSpace=wrap;html=1;aspect=fixed;" vertex="1" parent="1">
          <mxGeometry x="-170" y="470" width="60" height="60" as="geometry" />
        </mxCell>
        <mxCell id="-s7e6Kf5S007aA6jrxE3-20" value="" style="whiteSpace=wrap;html=1;aspect=fixed;" vertex="1" parent="1">
          <mxGeometry x="-110" y="470" width="60" height="60" as="geometry" />
        </mxCell>
        <mxCell id="-s7e6Kf5S007aA6jrxE3-22" value="" style="endArrow=none;html=1;rounded=0;entryX=0;entryY=1;entryDx=0;entryDy=0;exitX=0.25;exitY=0;exitDx=0;exitDy=0;" edge="1" parent="1" source="-s7e6Kf5S007aA6jrxE3-14" target="-s7e6Kf5S007aA6jrxE3-2">
          <mxGeometry width="50" height="50" relative="1" as="geometry">
            <mxPoint x="80" y="510" as="sourcePoint" />
            <mxPoint x="130" y="460" as="targetPoint" />
          </mxGeometry>
        </mxCell>
        <mxCell id="-s7e6Kf5S007aA6jrxE3-23" value="" style="endArrow=none;html=1;rounded=0;entryX=0;entryY=1;entryDx=0;entryDy=0;exitX=0.5;exitY=0;exitDx=0;exitDy=0;" edge="1" parent="1" source="-s7e6Kf5S007aA6jrxE3-18" target="-s7e6Kf5S007aA6jrxE3-1">
          <mxGeometry width="50" height="50" relative="1" as="geometry">
            <mxPoint x="120" y="560" as="sourcePoint" />
            <mxPoint x="335" y="410" as="targetPoint" />
          </mxGeometry>
        </mxCell>
        <mxCell id="-s7e6Kf5S007aA6jrxE3-24" value="" style="endArrow=none;html=1;rounded=0;entryX=0;entryY=1;entryDx=0;entryDy=0;exitX=0.5;exitY=0;exitDx=0;exitDy=0;" edge="1" parent="1" source="-s7e6Kf5S007aA6jrxE3-10" target="-s7e6Kf5S007aA6jrxE3-3">
          <mxGeometry width="50" height="50" relative="1" as="geometry">
            <mxPoint x="190" y="520" as="sourcePoint" />
            <mxPoint x="405" y="370" as="targetPoint" />
          </mxGeometry>
        </mxCell>
        <mxCell id="-s7e6Kf5S007aA6jrxE3-25" value="" style="endArrow=none;html=1;rounded=0;entryX=0;entryY=1;entryDx=0;entryDy=0;exitX=0.75;exitY=0;exitDx=0;exitDy=0;" edge="1" parent="1" source="-s7e6Kf5S007aA6jrxE3-6" target="-s7e6Kf5S007aA6jrxE3-4">
          <mxGeometry width="50" height="50" relative="1" as="geometry">
            <mxPoint x="290" y="570" as="sourcePoint" />
            <mxPoint x="290" y="420" as="targetPoint" />
          </mxGeometry>
        </mxCell>
      </root>
    </mxGraphModel>
  </diagram>
  <diagram name="Adiciona UI" id="8mBjJMmrXou2iaakO268">
    <mxGraphModel dx="2208" dy="540" grid="1" gridSize="10" guides="1" tooltips="1" connect="1" arrows="1" fold="1" page="1" pageScale="1" pageWidth="827" pageHeight="1169" math="0" shadow="0">
      <root>
        <mxCell id="zzxoRn-Co4T2mx6_VRAC-0" />
        <mxCell id="zzxoRn-Co4T2mx6_VRAC-1" parent="zzxoRn-Co4T2mx6_VRAC-0" />
        <mxCell id="zzxoRn-Co4T2mx6_VRAC-2" value="UB" style="whiteSpace=wrap;html=1;aspect=fixed;" vertex="1" parent="zzxoRn-Co4T2mx6_VRAC-1">
          <mxGeometry x="130" y="260" width="60" height="60" as="geometry" />
        </mxCell>
        <mxCell id="zzxoRn-Co4T2mx6_VRAC-3" value="UU" style="whiteSpace=wrap;html=1;aspect=fixed;" vertex="1" parent="zzxoRn-Co4T2mx6_VRAC-1">
          <mxGeometry x="190" y="260" width="60" height="60" as="geometry" />
        </mxCell>
        <mxCell id="zzxoRn-Co4T2mx6_VRAC-4" value="VR" style="whiteSpace=wrap;html=1;aspect=fixed;" vertex="1" parent="zzxoRn-Co4T2mx6_VRAC-1">
          <mxGeometry x="250" y="260" width="60" height="60" as="geometry" />
        </mxCell>
        <mxCell id="zzxoRn-Co4T2mx6_VRAC-5" value="" style="whiteSpace=wrap;html=1;aspect=fixed;" vertex="1" parent="zzxoRn-Co4T2mx6_VRAC-1">
          <mxGeometry x="310" y="260" width="60" height="60" as="geometry" />
        </mxCell>
        <mxCell id="zzxoRn-Co4T2mx6_VRAC-6" value="WN" style="whiteSpace=wrap;html=1;aspect=fixed;" vertex="1" parent="zzxoRn-Co4T2mx6_VRAC-1">
          <mxGeometry x="510" y="470" width="60" height="60" as="geometry" />
        </mxCell>
        <mxCell id="zzxoRn-Co4T2mx6_VRAC-7" value="XC" style="whiteSpace=wrap;html=1;aspect=fixed;" vertex="1" parent="zzxoRn-Co4T2mx6_VRAC-1">
          <mxGeometry x="570" y="470" width="60" height="60" as="geometry" />
        </mxCell>
        <mxCell id="zzxoRn-Co4T2mx6_VRAC-8" value="" style="whiteSpace=wrap;html=1;aspect=fixed;" vertex="1" parent="zzxoRn-Co4T2mx6_VRAC-1">
          <mxGeometry x="630" y="470" width="60" height="60" as="geometry" />
        </mxCell>
        <mxCell id="zzxoRn-Co4T2mx6_VRAC-9" value="" style="whiteSpace=wrap;html=1;aspect=fixed;" vertex="1" parent="zzxoRn-Co4T2mx6_VRAC-1">
          <mxGeometry x="690" y="470" width="60" height="60" as="geometry" />
        </mxCell>
        <mxCell id="zzxoRn-Co4T2mx6_VRAC-10" value="VE" style="whiteSpace=wrap;html=1;aspect=fixed;" vertex="1" parent="zzxoRn-Co4T2mx6_VRAC-1">
          <mxGeometry x="240" y="470" width="60" height="60" as="geometry" />
        </mxCell>
        <mxCell id="zzxoRn-Co4T2mx6_VRAC-11" value="VJ" style="whiteSpace=wrap;html=1;aspect=fixed;" vertex="1" parent="zzxoRn-Co4T2mx6_VRAC-1">
          <mxGeometry x="300" y="470" width="60" height="60" as="geometry" />
        </mxCell>
        <mxCell id="zzxoRn-Co4T2mx6_VRAC-12" value="" style="whiteSpace=wrap;html=1;aspect=fixed;" vertex="1" parent="zzxoRn-Co4T2mx6_VRAC-1">
          <mxGeometry x="360" y="470" width="60" height="60" as="geometry" />
        </mxCell>
        <mxCell id="zzxoRn-Co4T2mx6_VRAC-13" value="" style="whiteSpace=wrap;html=1;aspect=fixed;" vertex="1" parent="zzxoRn-Co4T2mx6_VRAC-1">
          <mxGeometry x="420" y="470" width="60" height="60" as="geometry" />
        </mxCell>
        <mxCell id="zzxoRn-Co4T2mx6_VRAC-14" value="UD" style="whiteSpace=wrap;html=1;aspect=fixed;" vertex="1" parent="zzxoRn-Co4T2mx6_VRAC-1">
          <mxGeometry x="-20" y="470" width="60" height="60" as="geometry" />
        </mxCell>
        <mxCell id="zzxoRn-Co4T2mx6_VRAC-15" value="UF" style="whiteSpace=wrap;html=1;aspect=fixed;" vertex="1" parent="zzxoRn-Co4T2mx6_VRAC-1">
          <mxGeometry x="40" y="470" width="60" height="60" as="geometry" />
        </mxCell>
        <mxCell id="zzxoRn-Co4T2mx6_VRAC-16" value="UI" style="whiteSpace=wrap;html=1;aspect=fixed;" vertex="1" parent="zzxoRn-Co4T2mx6_VRAC-1">
          <mxGeometry x="100" y="470" width="60" height="60" as="geometry" />
        </mxCell>
        <mxCell id="zzxoRn-Co4T2mx6_VRAC-17" value="UK" style="whiteSpace=wrap;html=1;aspect=fixed;" vertex="1" parent="zzxoRn-Co4T2mx6_VRAC-1">
          <mxGeometry x="160" y="470" width="60" height="60" as="geometry" />
        </mxCell>
        <mxCell id="zzxoRn-Co4T2mx6_VRAC-18" value="TH" style="whiteSpace=wrap;html=1;aspect=fixed;" vertex="1" parent="zzxoRn-Co4T2mx6_VRAC-1">
          <mxGeometry x="-290" y="470" width="60" height="60" as="geometry" />
        </mxCell>
        <mxCell id="zzxoRn-Co4T2mx6_VRAC-19" value="TQ" style="whiteSpace=wrap;html=1;aspect=fixed;" vertex="1" parent="zzxoRn-Co4T2mx6_VRAC-1">
          <mxGeometry x="-230" y="470" width="60" height="60" as="geometry" />
        </mxCell>
        <mxCell id="zzxoRn-Co4T2mx6_VRAC-20" value="" style="whiteSpace=wrap;html=1;aspect=fixed;" vertex="1" parent="zzxoRn-Co4T2mx6_VRAC-1">
          <mxGeometry x="-170" y="470" width="60" height="60" as="geometry" />
        </mxCell>
        <mxCell id="zzxoRn-Co4T2mx6_VRAC-21" value="" style="whiteSpace=wrap;html=1;aspect=fixed;" vertex="1" parent="zzxoRn-Co4T2mx6_VRAC-1">
          <mxGeometry x="-110" y="470" width="60" height="60" as="geometry" />
        </mxCell>
        <mxCell id="zzxoRn-Co4T2mx6_VRAC-22" value="" style="endArrow=none;html=1;rounded=0;entryX=0;entryY=1;entryDx=0;entryDy=0;exitX=0.25;exitY=0;exitDx=0;exitDy=0;" edge="1" parent="zzxoRn-Co4T2mx6_VRAC-1" source="zzxoRn-Co4T2mx6_VRAC-15" target="zzxoRn-Co4T2mx6_VRAC-3">
          <mxGeometry width="50" height="50" relative="1" as="geometry">
            <mxPoint x="80" y="510" as="sourcePoint" />
            <mxPoint x="130" y="460" as="targetPoint" />
          </mxGeometry>
        </mxCell>
        <mxCell id="zzxoRn-Co4T2mx6_VRAC-23" value="" style="endArrow=none;html=1;rounded=0;entryX=0;entryY=1;entryDx=0;entryDy=0;exitX=0.5;exitY=0;exitDx=0;exitDy=0;" edge="1" parent="zzxoRn-Co4T2mx6_VRAC-1" source="zzxoRn-Co4T2mx6_VRAC-19" target="zzxoRn-Co4T2mx6_VRAC-2">
          <mxGeometry width="50" height="50" relative="1" as="geometry">
            <mxPoint x="120" y="560" as="sourcePoint" />
            <mxPoint x="335" y="410" as="targetPoint" />
          </mxGeometry>
        </mxCell>
        <mxCell id="zzxoRn-Co4T2mx6_VRAC-24" value="" style="endArrow=none;html=1;rounded=0;entryX=0;entryY=1;entryDx=0;entryDy=0;exitX=0.5;exitY=0;exitDx=0;exitDy=0;" edge="1" parent="zzxoRn-Co4T2mx6_VRAC-1" source="zzxoRn-Co4T2mx6_VRAC-11" target="zzxoRn-Co4T2mx6_VRAC-4">
          <mxGeometry width="50" height="50" relative="1" as="geometry">
            <mxPoint x="190" y="520" as="sourcePoint" />
            <mxPoint x="405" y="370" as="targetPoint" />
          </mxGeometry>
        </mxCell>
        <mxCell id="zzxoRn-Co4T2mx6_VRAC-25" value="" style="endArrow=none;html=1;rounded=0;entryX=0;entryY=1;entryDx=0;entryDy=0;exitX=0.75;exitY=0;exitDx=0;exitDy=0;" edge="1" parent="zzxoRn-Co4T2mx6_VRAC-1" source="zzxoRn-Co4T2mx6_VRAC-7" target="zzxoRn-Co4T2mx6_VRAC-5">
          <mxGeometry width="50" height="50" relative="1" as="geometry">
            <mxPoint x="290" y="570" as="sourcePoint" />
            <mxPoint x="290" y="420" as="targetPoint" />
          </mxGeometry>
        </mxCell>
      </root>
    </mxGraphModel>
  </diagram>
  <diagram name="Adiciona XB" id="tV9xisX_yv49bGU8yOLm">
    <mxGraphModel dx="2208" dy="540" grid="1" gridSize="10" guides="1" tooltips="1" connect="1" arrows="1" fold="1" page="1" pageScale="1" pageWidth="827" pageHeight="1169" math="0" shadow="0">
      <root>
        <mxCell id="icaLEInUz6SyCNMcRIle-0" />
        <mxCell id="icaLEInUz6SyCNMcRIle-1" parent="icaLEInUz6SyCNMcRIle-0" />
        <mxCell id="icaLEInUz6SyCNMcRIle-2" value="UB" style="whiteSpace=wrap;html=1;aspect=fixed;" vertex="1" parent="icaLEInUz6SyCNMcRIle-1">
          <mxGeometry x="130" y="260" width="60" height="60" as="geometry" />
        </mxCell>
        <mxCell id="icaLEInUz6SyCNMcRIle-3" value="UU" style="whiteSpace=wrap;html=1;aspect=fixed;" vertex="1" parent="icaLEInUz6SyCNMcRIle-1">
          <mxGeometry x="190" y="260" width="60" height="60" as="geometry" />
        </mxCell>
        <mxCell id="icaLEInUz6SyCNMcRIle-4" value="VR" style="whiteSpace=wrap;html=1;aspect=fixed;" vertex="1" parent="icaLEInUz6SyCNMcRIle-1">
          <mxGeometry x="250" y="260" width="60" height="60" as="geometry" />
        </mxCell>
        <mxCell id="icaLEInUz6SyCNMcRIle-5" value="" style="whiteSpace=wrap;html=1;aspect=fixed;" vertex="1" parent="icaLEInUz6SyCNMcRIle-1">
          <mxGeometry x="310" y="260" width="60" height="60" as="geometry" />
        </mxCell>
        <mxCell id="icaLEInUz6SyCNMcRIle-6" value="WN" style="whiteSpace=wrap;html=1;aspect=fixed;" vertex="1" parent="icaLEInUz6SyCNMcRIle-1">
          <mxGeometry x="510" y="470" width="60" height="60" as="geometry" />
        </mxCell>
        <mxCell id="icaLEInUz6SyCNMcRIle-7" value="XB" style="whiteSpace=wrap;html=1;aspect=fixed;" vertex="1" parent="icaLEInUz6SyCNMcRIle-1">
          <mxGeometry x="570" y="470" width="60" height="60" as="geometry" />
        </mxCell>
        <mxCell id="icaLEInUz6SyCNMcRIle-8" value="XC" style="whiteSpace=wrap;html=1;aspect=fixed;" vertex="1" parent="icaLEInUz6SyCNMcRIle-1">
          <mxGeometry x="630" y="470" width="60" height="60" as="geometry" />
        </mxCell>
        <mxCell id="icaLEInUz6SyCNMcRIle-9" value="" style="whiteSpace=wrap;html=1;aspect=fixed;" vertex="1" parent="icaLEInUz6SyCNMcRIle-1">
          <mxGeometry x="690" y="470" width="60" height="60" as="geometry" />
        </mxCell>
        <mxCell id="icaLEInUz6SyCNMcRIle-10" value="VE" style="whiteSpace=wrap;html=1;aspect=fixed;" vertex="1" parent="icaLEInUz6SyCNMcRIle-1">
          <mxGeometry x="240" y="470" width="60" height="60" as="geometry" />
        </mxCell>
        <mxCell id="icaLEInUz6SyCNMcRIle-11" value="VJ" style="whiteSpace=wrap;html=1;aspect=fixed;" vertex="1" parent="icaLEInUz6SyCNMcRIle-1">
          <mxGeometry x="300" y="470" width="60" height="60" as="geometry" />
        </mxCell>
        <mxCell id="icaLEInUz6SyCNMcRIle-12" value="" style="whiteSpace=wrap;html=1;aspect=fixed;" vertex="1" parent="icaLEInUz6SyCNMcRIle-1">
          <mxGeometry x="360" y="470" width="60" height="60" as="geometry" />
        </mxCell>
        <mxCell id="icaLEInUz6SyCNMcRIle-13" value="" style="whiteSpace=wrap;html=1;aspect=fixed;" vertex="1" parent="icaLEInUz6SyCNMcRIle-1">
          <mxGeometry x="420" y="470" width="60" height="60" as="geometry" />
        </mxCell>
        <mxCell id="icaLEInUz6SyCNMcRIle-14" value="UD" style="whiteSpace=wrap;html=1;aspect=fixed;" vertex="1" parent="icaLEInUz6SyCNMcRIle-1">
          <mxGeometry x="-20" y="470" width="60" height="60" as="geometry" />
        </mxCell>
        <mxCell id="icaLEInUz6SyCNMcRIle-15" value="UF" style="whiteSpace=wrap;html=1;aspect=fixed;" vertex="1" parent="icaLEInUz6SyCNMcRIle-1">
          <mxGeometry x="40" y="470" width="60" height="60" as="geometry" />
        </mxCell>
        <mxCell id="icaLEInUz6SyCNMcRIle-16" value="UI" style="whiteSpace=wrap;html=1;aspect=fixed;" vertex="1" parent="icaLEInUz6SyCNMcRIle-1">
          <mxGeometry x="100" y="470" width="60" height="60" as="geometry" />
        </mxCell>
        <mxCell id="icaLEInUz6SyCNMcRIle-17" value="UK" style="whiteSpace=wrap;html=1;aspect=fixed;" vertex="1" parent="icaLEInUz6SyCNMcRIle-1">
          <mxGeometry x="160" y="470" width="60" height="60" as="geometry" />
        </mxCell>
        <mxCell id="icaLEInUz6SyCNMcRIle-18" value="TH" style="whiteSpace=wrap;html=1;aspect=fixed;" vertex="1" parent="icaLEInUz6SyCNMcRIle-1">
          <mxGeometry x="-290" y="470" width="60" height="60" as="geometry" />
        </mxCell>
        <mxCell id="icaLEInUz6SyCNMcRIle-19" value="TQ" style="whiteSpace=wrap;html=1;aspect=fixed;" vertex="1" parent="icaLEInUz6SyCNMcRIle-1">
          <mxGeometry x="-230" y="470" width="60" height="60" as="geometry" />
        </mxCell>
        <mxCell id="icaLEInUz6SyCNMcRIle-20" value="" style="whiteSpace=wrap;html=1;aspect=fixed;" vertex="1" parent="icaLEInUz6SyCNMcRIle-1">
          <mxGeometry x="-170" y="470" width="60" height="60" as="geometry" />
        </mxCell>
        <mxCell id="icaLEInUz6SyCNMcRIle-21" value="" style="whiteSpace=wrap;html=1;aspect=fixed;" vertex="1" parent="icaLEInUz6SyCNMcRIle-1">
          <mxGeometry x="-110" y="470" width="60" height="60" as="geometry" />
        </mxCell>
        <mxCell id="icaLEInUz6SyCNMcRIle-22" value="" style="endArrow=none;html=1;rounded=0;entryX=0;entryY=1;entryDx=0;entryDy=0;exitX=0.25;exitY=0;exitDx=0;exitDy=0;" edge="1" parent="icaLEInUz6SyCNMcRIle-1" source="icaLEInUz6SyCNMcRIle-15" target="icaLEInUz6SyCNMcRIle-3">
          <mxGeometry width="50" height="50" relative="1" as="geometry">
            <mxPoint x="80" y="510" as="sourcePoint" />
            <mxPoint x="130" y="460" as="targetPoint" />
          </mxGeometry>
        </mxCell>
        <mxCell id="icaLEInUz6SyCNMcRIle-23" value="" style="endArrow=none;html=1;rounded=0;entryX=0;entryY=1;entryDx=0;entryDy=0;exitX=0.5;exitY=0;exitDx=0;exitDy=0;" edge="1" parent="icaLEInUz6SyCNMcRIle-1" source="icaLEInUz6SyCNMcRIle-19" target="icaLEInUz6SyCNMcRIle-2">
          <mxGeometry width="50" height="50" relative="1" as="geometry">
            <mxPoint x="120" y="560" as="sourcePoint" />
            <mxPoint x="335" y="410" as="targetPoint" />
          </mxGeometry>
        </mxCell>
        <mxCell id="icaLEInUz6SyCNMcRIle-24" value="" style="endArrow=none;html=1;rounded=0;entryX=0;entryY=1;entryDx=0;entryDy=0;exitX=0.5;exitY=0;exitDx=0;exitDy=0;" edge="1" parent="icaLEInUz6SyCNMcRIle-1" source="icaLEInUz6SyCNMcRIle-11" target="icaLEInUz6SyCNMcRIle-4">
          <mxGeometry width="50" height="50" relative="1" as="geometry">
            <mxPoint x="190" y="520" as="sourcePoint" />
            <mxPoint x="405" y="370" as="targetPoint" />
          </mxGeometry>
        </mxCell>
        <mxCell id="icaLEInUz6SyCNMcRIle-25" value="" style="endArrow=none;html=1;rounded=0;entryX=0;entryY=1;entryDx=0;entryDy=0;exitX=0.75;exitY=0;exitDx=0;exitDy=0;" edge="1" parent="icaLEInUz6SyCNMcRIle-1" source="icaLEInUz6SyCNMcRIle-7" target="icaLEInUz6SyCNMcRIle-5">
          <mxGeometry width="50" height="50" relative="1" as="geometry">
            <mxPoint x="290" y="570" as="sourcePoint" />
            <mxPoint x="290" y="420" as="targetPoint" />
          </mxGeometry>
        </mxCell>
      </root>
    </mxGraphModel>
  </diagram>
  <diagram name="Adiciona UT" id="7a4RgRnOw1bH5BUC-as9">
    <mxGraphModel dx="3896" dy="1200" grid="1" gridSize="10" guides="1" tooltips="1" connect="1" arrows="1" fold="1" page="1" pageScale="1" pageWidth="827" pageHeight="1169" math="0" shadow="0">
      <root>
        <mxCell id="dLsByhe7tH4VD3p7DToE-0" />
        <mxCell id="dLsByhe7tH4VD3p7DToE-1" parent="dLsByhe7tH4VD3p7DToE-0" />
        <mxCell id="dLsByhe7tH4VD3p7DToE-2" value="UB" style="whiteSpace=wrap;html=1;aspect=fixed;" vertex="1" parent="dLsByhe7tH4VD3p7DToE-1">
          <mxGeometry x="130" y="260" width="60" height="60" as="geometry" />
        </mxCell>
        <mxCell id="dLsByhe7tH4VD3p7DToE-3" value="UU" style="whiteSpace=wrap;html=1;aspect=fixed;" vertex="1" parent="dLsByhe7tH4VD3p7DToE-1">
          <mxGeometry x="190" y="260" width="60" height="60" as="geometry" />
        </mxCell>
        <mxCell id="dLsByhe7tH4VD3p7DToE-4" value="VR" style="whiteSpace=wrap;html=1;aspect=fixed;" vertex="1" parent="dLsByhe7tH4VD3p7DToE-1">
          <mxGeometry x="250" y="260" width="60" height="60" as="geometry" />
        </mxCell>
        <mxCell id="dLsByhe7tH4VD3p7DToE-5" value="" style="whiteSpace=wrap;html=1;aspect=fixed;" vertex="1" parent="dLsByhe7tH4VD3p7DToE-1">
          <mxGeometry x="310" y="260" width="60" height="60" as="geometry" />
        </mxCell>
        <mxCell id="dLsByhe7tH4VD3p7DToE-6" value="WN" style="whiteSpace=wrap;html=1;aspect=fixed;" vertex="1" parent="dLsByhe7tH4VD3p7DToE-1">
          <mxGeometry x="510" y="470" width="60" height="60" as="geometry" />
        </mxCell>
        <mxCell id="dLsByhe7tH4VD3p7DToE-7" value="XB" style="whiteSpace=wrap;html=1;aspect=fixed;" vertex="1" parent="dLsByhe7tH4VD3p7DToE-1">
          <mxGeometry x="570" y="470" width="60" height="60" as="geometry" />
        </mxCell>
        <mxCell id="dLsByhe7tH4VD3p7DToE-8" value="XC" style="whiteSpace=wrap;html=1;aspect=fixed;" vertex="1" parent="dLsByhe7tH4VD3p7DToE-1">
          <mxGeometry x="630" y="470" width="60" height="60" as="geometry" />
        </mxCell>
        <mxCell id="dLsByhe7tH4VD3p7DToE-9" value="" style="whiteSpace=wrap;html=1;aspect=fixed;" vertex="1" parent="dLsByhe7tH4VD3p7DToE-1">
          <mxGeometry x="690" y="470" width="60" height="60" as="geometry" />
        </mxCell>
        <mxCell id="dLsByhe7tH4VD3p7DToE-10" value="UT" style="whiteSpace=wrap;html=1;aspect=fixed;" vertex="1" parent="dLsByhe7tH4VD3p7DToE-1">
          <mxGeometry x="240" y="470" width="60" height="60" as="geometry" />
        </mxCell>
        <mxCell id="dLsByhe7tH4VD3p7DToE-11" value="VE" style="whiteSpace=wrap;html=1;aspect=fixed;" vertex="1" parent="dLsByhe7tH4VD3p7DToE-1">
          <mxGeometry x="300" y="470" width="60" height="60" as="geometry" />
        </mxCell>
        <mxCell id="dLsByhe7tH4VD3p7DToE-12" value="VJ" style="whiteSpace=wrap;html=1;aspect=fixed;" vertex="1" parent="dLsByhe7tH4VD3p7DToE-1">
          <mxGeometry x="360" y="470" width="60" height="60" as="geometry" />
        </mxCell>
        <mxCell id="dLsByhe7tH4VD3p7DToE-13" value="" style="whiteSpace=wrap;html=1;aspect=fixed;" vertex="1" parent="dLsByhe7tH4VD3p7DToE-1">
          <mxGeometry x="420" y="470" width="60" height="60" as="geometry" />
        </mxCell>
        <mxCell id="dLsByhe7tH4VD3p7DToE-14" value="UD" style="whiteSpace=wrap;html=1;aspect=fixed;" vertex="1" parent="dLsByhe7tH4VD3p7DToE-1">
          <mxGeometry x="-20" y="470" width="60" height="60" as="geometry" />
        </mxCell>
        <mxCell id="dLsByhe7tH4VD3p7DToE-15" value="UF" style="whiteSpace=wrap;html=1;aspect=fixed;" vertex="1" parent="dLsByhe7tH4VD3p7DToE-1">
          <mxGeometry x="40" y="470" width="60" height="60" as="geometry" />
        </mxCell>
        <mxCell id="dLsByhe7tH4VD3p7DToE-16" value="UI" style="whiteSpace=wrap;html=1;aspect=fixed;" vertex="1" parent="dLsByhe7tH4VD3p7DToE-1">
          <mxGeometry x="100" y="470" width="60" height="60" as="geometry" />
        </mxCell>
        <mxCell id="dLsByhe7tH4VD3p7DToE-17" value="UK" style="whiteSpace=wrap;html=1;aspect=fixed;" vertex="1" parent="dLsByhe7tH4VD3p7DToE-1">
          <mxGeometry x="160" y="470" width="60" height="60" as="geometry" />
        </mxCell>
        <mxCell id="dLsByhe7tH4VD3p7DToE-18" value="TH" style="whiteSpace=wrap;html=1;aspect=fixed;" vertex="1" parent="dLsByhe7tH4VD3p7DToE-1">
          <mxGeometry x="-290" y="470" width="60" height="60" as="geometry" />
        </mxCell>
        <mxCell id="dLsByhe7tH4VD3p7DToE-19" value="TQ" style="whiteSpace=wrap;html=1;aspect=fixed;" vertex="1" parent="dLsByhe7tH4VD3p7DToE-1">
          <mxGeometry x="-230" y="470" width="60" height="60" as="geometry" />
        </mxCell>
        <mxCell id="dLsByhe7tH4VD3p7DToE-20" value="" style="whiteSpace=wrap;html=1;aspect=fixed;" vertex="1" parent="dLsByhe7tH4VD3p7DToE-1">
          <mxGeometry x="-170" y="470" width="60" height="60" as="geometry" />
        </mxCell>
        <mxCell id="dLsByhe7tH4VD3p7DToE-21" value="" style="whiteSpace=wrap;html=1;aspect=fixed;" vertex="1" parent="dLsByhe7tH4VD3p7DToE-1">
          <mxGeometry x="-110" y="470" width="60" height="60" as="geometry" />
        </mxCell>
        <mxCell id="dLsByhe7tH4VD3p7DToE-22" value="" style="endArrow=none;html=1;rounded=0;entryX=0;entryY=1;entryDx=0;entryDy=0;exitX=0.25;exitY=0;exitDx=0;exitDy=0;" edge="1" parent="dLsByhe7tH4VD3p7DToE-1" source="dLsByhe7tH4VD3p7DToE-15" target="dLsByhe7tH4VD3p7DToE-3">
          <mxGeometry width="50" height="50" relative="1" as="geometry">
            <mxPoint x="80" y="510" as="sourcePoint" />
            <mxPoint x="130" y="460" as="targetPoint" />
          </mxGeometry>
        </mxCell>
        <mxCell id="dLsByhe7tH4VD3p7DToE-23" value="" style="endArrow=none;html=1;rounded=0;entryX=0;entryY=1;entryDx=0;entryDy=0;exitX=0.5;exitY=0;exitDx=0;exitDy=0;" edge="1" parent="dLsByhe7tH4VD3p7DToE-1" source="dLsByhe7tH4VD3p7DToE-19" target="dLsByhe7tH4VD3p7DToE-2">
          <mxGeometry width="50" height="50" relative="1" as="geometry">
            <mxPoint x="120" y="560" as="sourcePoint" />
            <mxPoint x="335" y="410" as="targetPoint" />
          </mxGeometry>
        </mxCell>
        <mxCell id="dLsByhe7tH4VD3p7DToE-24" value="" style="endArrow=none;html=1;rounded=0;entryX=0;entryY=1;entryDx=0;entryDy=0;exitX=0.5;exitY=0;exitDx=0;exitDy=0;" edge="1" parent="dLsByhe7tH4VD3p7DToE-1" source="dLsByhe7tH4VD3p7DToE-11" target="dLsByhe7tH4VD3p7DToE-4">
          <mxGeometry width="50" height="50" relative="1" as="geometry">
            <mxPoint x="190" y="520" as="sourcePoint" />
            <mxPoint x="405" y="370" as="targetPoint" />
          </mxGeometry>
        </mxCell>
        <mxCell id="dLsByhe7tH4VD3p7DToE-25" value="" style="endArrow=none;html=1;rounded=0;entryX=0;entryY=1;entryDx=0;entryDy=0;exitX=0.75;exitY=0;exitDx=0;exitDy=0;" edge="1" parent="dLsByhe7tH4VD3p7DToE-1" source="dLsByhe7tH4VD3p7DToE-7" target="dLsByhe7tH4VD3p7DToE-5">
          <mxGeometry width="50" height="50" relative="1" as="geometry">
            <mxPoint x="290" y="570" as="sourcePoint" />
            <mxPoint x="290" y="420" as="targetPoint" />
          </mxGeometry>
        </mxCell>
      </root>
    </mxGraphModel>
  </diagram>
  <diagram name="Adiciona WI" id="KU0CqRqPKXNluM_IruhL">
    <mxGraphModel dx="2800" dy="771" grid="1" gridSize="10" guides="1" tooltips="1" connect="1" arrows="1" fold="1" page="1" pageScale="1" pageWidth="827" pageHeight="1169" math="0" shadow="0">
      <root>
        <mxCell id="GqjqvnWhLb3Ot_Si9ELt-0" />
        <mxCell id="GqjqvnWhLb3Ot_Si9ELt-1" parent="GqjqvnWhLb3Ot_Si9ELt-0" />
        <mxCell id="GqjqvnWhLb3Ot_Si9ELt-2" value="UB" style="whiteSpace=wrap;html=1;aspect=fixed;" vertex="1" parent="GqjqvnWhLb3Ot_Si9ELt-1">
          <mxGeometry x="130" y="260" width="60" height="60" as="geometry" />
        </mxCell>
        <mxCell id="GqjqvnWhLb3Ot_Si9ELt-3" value="UU" style="whiteSpace=wrap;html=1;aspect=fixed;" vertex="1" parent="GqjqvnWhLb3Ot_Si9ELt-1">
          <mxGeometry x="190" y="260" width="60" height="60" as="geometry" />
        </mxCell>
        <mxCell id="GqjqvnWhLb3Ot_Si9ELt-4" value="VR" style="whiteSpace=wrap;html=1;aspect=fixed;" vertex="1" parent="GqjqvnWhLb3Ot_Si9ELt-1">
          <mxGeometry x="250" y="260" width="60" height="60" as="geometry" />
        </mxCell>
        <mxCell id="GqjqvnWhLb3Ot_Si9ELt-5" value="" style="whiteSpace=wrap;html=1;aspect=fixed;" vertex="1" parent="GqjqvnWhLb3Ot_Si9ELt-1">
          <mxGeometry x="310" y="260" width="60" height="60" as="geometry" />
        </mxCell>
        <mxCell id="GqjqvnWhLb3Ot_Si9ELt-6" value="WI" style="whiteSpace=wrap;html=1;aspect=fixed;" vertex="1" parent="GqjqvnWhLb3Ot_Si9ELt-1">
          <mxGeometry x="510" y="470" width="60" height="60" as="geometry" />
        </mxCell>
        <mxCell id="GqjqvnWhLb3Ot_Si9ELt-7" value="WN" style="whiteSpace=wrap;html=1;aspect=fixed;" vertex="1" parent="GqjqvnWhLb3Ot_Si9ELt-1">
          <mxGeometry x="570" y="470" width="60" height="60" as="geometry" />
        </mxCell>
        <mxCell id="GqjqvnWhLb3Ot_Si9ELt-8" value="XB" style="whiteSpace=wrap;html=1;aspect=fixed;" vertex="1" parent="GqjqvnWhLb3Ot_Si9ELt-1">
          <mxGeometry x="630" y="470" width="60" height="60" as="geometry" />
        </mxCell>
        <mxCell id="GqjqvnWhLb3Ot_Si9ELt-9" value="XC" style="whiteSpace=wrap;html=1;aspect=fixed;" vertex="1" parent="GqjqvnWhLb3Ot_Si9ELt-1">
          <mxGeometry x="690" y="470" width="60" height="60" as="geometry" />
        </mxCell>
        <mxCell id="GqjqvnWhLb3Ot_Si9ELt-10" value="UT" style="whiteSpace=wrap;html=1;aspect=fixed;" vertex="1" parent="GqjqvnWhLb3Ot_Si9ELt-1">
          <mxGeometry x="240" y="470" width="60" height="60" as="geometry" />
        </mxCell>
        <mxCell id="GqjqvnWhLb3Ot_Si9ELt-11" value="VE" style="whiteSpace=wrap;html=1;aspect=fixed;" vertex="1" parent="GqjqvnWhLb3Ot_Si9ELt-1">
          <mxGeometry x="300" y="470" width="60" height="60" as="geometry" />
        </mxCell>
        <mxCell id="GqjqvnWhLb3Ot_Si9ELt-12" value="VJ" style="whiteSpace=wrap;html=1;aspect=fixed;" vertex="1" parent="GqjqvnWhLb3Ot_Si9ELt-1">
          <mxGeometry x="360" y="470" width="60" height="60" as="geometry" />
        </mxCell>
        <mxCell id="GqjqvnWhLb3Ot_Si9ELt-13" value="" style="whiteSpace=wrap;html=1;aspect=fixed;" vertex="1" parent="GqjqvnWhLb3Ot_Si9ELt-1">
          <mxGeometry x="420" y="470" width="60" height="60" as="geometry" />
        </mxCell>
        <mxCell id="GqjqvnWhLb3Ot_Si9ELt-14" value="UD" style="whiteSpace=wrap;html=1;aspect=fixed;" vertex="1" parent="GqjqvnWhLb3Ot_Si9ELt-1">
          <mxGeometry x="-20" y="470" width="60" height="60" as="geometry" />
        </mxCell>
        <mxCell id="GqjqvnWhLb3Ot_Si9ELt-15" value="UF" style="whiteSpace=wrap;html=1;aspect=fixed;" vertex="1" parent="GqjqvnWhLb3Ot_Si9ELt-1">
          <mxGeometry x="40" y="470" width="60" height="60" as="geometry" />
        </mxCell>
        <mxCell id="GqjqvnWhLb3Ot_Si9ELt-16" value="UI" style="whiteSpace=wrap;html=1;aspect=fixed;" vertex="1" parent="GqjqvnWhLb3Ot_Si9ELt-1">
          <mxGeometry x="100" y="470" width="60" height="60" as="geometry" />
        </mxCell>
        <mxCell id="GqjqvnWhLb3Ot_Si9ELt-17" value="UK" style="whiteSpace=wrap;html=1;aspect=fixed;" vertex="1" parent="GqjqvnWhLb3Ot_Si9ELt-1">
          <mxGeometry x="160" y="470" width="60" height="60" as="geometry" />
        </mxCell>
        <mxCell id="GqjqvnWhLb3Ot_Si9ELt-18" value="TH" style="whiteSpace=wrap;html=1;aspect=fixed;" vertex="1" parent="GqjqvnWhLb3Ot_Si9ELt-1">
          <mxGeometry x="-290" y="470" width="60" height="60" as="geometry" />
        </mxCell>
        <mxCell id="GqjqvnWhLb3Ot_Si9ELt-19" value="TQ" style="whiteSpace=wrap;html=1;aspect=fixed;" vertex="1" parent="GqjqvnWhLb3Ot_Si9ELt-1">
          <mxGeometry x="-230" y="470" width="60" height="60" as="geometry" />
        </mxCell>
        <mxCell id="GqjqvnWhLb3Ot_Si9ELt-20" value="" style="whiteSpace=wrap;html=1;aspect=fixed;" vertex="1" parent="GqjqvnWhLb3Ot_Si9ELt-1">
          <mxGeometry x="-170" y="470" width="60" height="60" as="geometry" />
        </mxCell>
        <mxCell id="GqjqvnWhLb3Ot_Si9ELt-21" value="" style="whiteSpace=wrap;html=1;aspect=fixed;" vertex="1" parent="GqjqvnWhLb3Ot_Si9ELt-1">
          <mxGeometry x="-110" y="470" width="60" height="60" as="geometry" />
        </mxCell>
        <mxCell id="GqjqvnWhLb3Ot_Si9ELt-22" value="" style="endArrow=none;html=1;rounded=0;entryX=0;entryY=1;entryDx=0;entryDy=0;exitX=0.25;exitY=0;exitDx=0;exitDy=0;" edge="1" parent="GqjqvnWhLb3Ot_Si9ELt-1" source="GqjqvnWhLb3Ot_Si9ELt-15" target="GqjqvnWhLb3Ot_Si9ELt-3">
          <mxGeometry width="50" height="50" relative="1" as="geometry">
            <mxPoint x="80" y="510" as="sourcePoint" />
            <mxPoint x="130" y="460" as="targetPoint" />
          </mxGeometry>
        </mxCell>
        <mxCell id="GqjqvnWhLb3Ot_Si9ELt-23" value="" style="endArrow=none;html=1;rounded=0;entryX=0;entryY=1;entryDx=0;entryDy=0;exitX=0.5;exitY=0;exitDx=0;exitDy=0;" edge="1" parent="GqjqvnWhLb3Ot_Si9ELt-1" source="GqjqvnWhLb3Ot_Si9ELt-19" target="GqjqvnWhLb3Ot_Si9ELt-2">
          <mxGeometry width="50" height="50" relative="1" as="geometry">
            <mxPoint x="120" y="560" as="sourcePoint" />
            <mxPoint x="335" y="410" as="targetPoint" />
          </mxGeometry>
        </mxCell>
        <mxCell id="GqjqvnWhLb3Ot_Si9ELt-24" value="" style="endArrow=none;html=1;rounded=0;entryX=0;entryY=1;entryDx=0;entryDy=0;exitX=0.5;exitY=0;exitDx=0;exitDy=0;" edge="1" parent="GqjqvnWhLb3Ot_Si9ELt-1" source="GqjqvnWhLb3Ot_Si9ELt-11" target="GqjqvnWhLb3Ot_Si9ELt-4">
          <mxGeometry width="50" height="50" relative="1" as="geometry">
            <mxPoint x="190" y="520" as="sourcePoint" />
            <mxPoint x="405" y="370" as="targetPoint" />
          </mxGeometry>
        </mxCell>
        <mxCell id="GqjqvnWhLb3Ot_Si9ELt-25" value="" style="endArrow=none;html=1;rounded=0;entryX=0;entryY=1;entryDx=0;entryDy=0;exitX=0.75;exitY=0;exitDx=0;exitDy=0;" edge="1" parent="GqjqvnWhLb3Ot_Si9ELt-1" source="GqjqvnWhLb3Ot_Si9ELt-7" target="GqjqvnWhLb3Ot_Si9ELt-5">
          <mxGeometry width="50" height="50" relative="1" as="geometry">
            <mxPoint x="290" y="570" as="sourcePoint" />
            <mxPoint x="290" y="420" as="targetPoint" />
          </mxGeometry>
        </mxCell>
      </root>
    </mxGraphModel>
  </diagram>
  <diagram name="Adiciona VG" id="HOMBlXxnLVWCEdDSl4iQ">
    <mxGraphModel dx="2208" dy="540" grid="1" gridSize="10" guides="1" tooltips="1" connect="1" arrows="1" fold="1" page="1" pageScale="1" pageWidth="827" pageHeight="1169" math="0" shadow="0">
      <root>
        <mxCell id="Dx2A0TEQdzkr7N3c7dEE-0" />
        <mxCell id="Dx2A0TEQdzkr7N3c7dEE-1" parent="Dx2A0TEQdzkr7N3c7dEE-0" />
        <mxCell id="Dx2A0TEQdzkr7N3c7dEE-2" value="UB" style="whiteSpace=wrap;html=1;aspect=fixed;" vertex="1" parent="Dx2A0TEQdzkr7N3c7dEE-1">
          <mxGeometry x="130" y="260" width="60" height="60" as="geometry" />
        </mxCell>
        <mxCell id="Dx2A0TEQdzkr7N3c7dEE-3" value="UU" style="whiteSpace=wrap;html=1;aspect=fixed;" vertex="1" parent="Dx2A0TEQdzkr7N3c7dEE-1">
          <mxGeometry x="190" y="260" width="60" height="60" as="geometry" />
        </mxCell>
        <mxCell id="Dx2A0TEQdzkr7N3c7dEE-4" value="VR" style="whiteSpace=wrap;html=1;aspect=fixed;" vertex="1" parent="Dx2A0TEQdzkr7N3c7dEE-1">
          <mxGeometry x="250" y="260" width="60" height="60" as="geometry" />
        </mxCell>
        <mxCell id="Dx2A0TEQdzkr7N3c7dEE-5" value="" style="whiteSpace=wrap;html=1;aspect=fixed;" vertex="1" parent="Dx2A0TEQdzkr7N3c7dEE-1">
          <mxGeometry x="310" y="260" width="60" height="60" as="geometry" />
        </mxCell>
        <mxCell id="Dx2A0TEQdzkr7N3c7dEE-6" value="WI" style="whiteSpace=wrap;html=1;aspect=fixed;" vertex="1" parent="Dx2A0TEQdzkr7N3c7dEE-1">
          <mxGeometry x="510" y="470" width="60" height="60" as="geometry" />
        </mxCell>
        <mxCell id="Dx2A0TEQdzkr7N3c7dEE-7" value="WN" style="whiteSpace=wrap;html=1;aspect=fixed;" vertex="1" parent="Dx2A0TEQdzkr7N3c7dEE-1">
          <mxGeometry x="570" y="470" width="60" height="60" as="geometry" />
        </mxCell>
        <mxCell id="Dx2A0TEQdzkr7N3c7dEE-8" value="XB" style="whiteSpace=wrap;html=1;aspect=fixed;" vertex="1" parent="Dx2A0TEQdzkr7N3c7dEE-1">
          <mxGeometry x="630" y="470" width="60" height="60" as="geometry" />
        </mxCell>
        <mxCell id="Dx2A0TEQdzkr7N3c7dEE-9" value="XC" style="whiteSpace=wrap;html=1;aspect=fixed;" vertex="1" parent="Dx2A0TEQdzkr7N3c7dEE-1">
          <mxGeometry x="690" y="470" width="60" height="60" as="geometry" />
        </mxCell>
        <mxCell id="Dx2A0TEQdzkr7N3c7dEE-10" value="UT" style="whiteSpace=wrap;html=1;aspect=fixed;" vertex="1" parent="Dx2A0TEQdzkr7N3c7dEE-1">
          <mxGeometry x="240" y="470" width="60" height="60" as="geometry" />
        </mxCell>
        <mxCell id="Dx2A0TEQdzkr7N3c7dEE-11" value="VE" style="whiteSpace=wrap;html=1;aspect=fixed;" vertex="1" parent="Dx2A0TEQdzkr7N3c7dEE-1">
          <mxGeometry x="300" y="470" width="60" height="60" as="geometry" />
        </mxCell>
        <mxCell id="Dx2A0TEQdzkr7N3c7dEE-12" value="VG" style="whiteSpace=wrap;html=1;aspect=fixed;" vertex="1" parent="Dx2A0TEQdzkr7N3c7dEE-1">
          <mxGeometry x="360" y="470" width="60" height="60" as="geometry" />
        </mxCell>
        <mxCell id="Dx2A0TEQdzkr7N3c7dEE-13" value="VJ" style="whiteSpace=wrap;html=1;aspect=fixed;" vertex="1" parent="Dx2A0TEQdzkr7N3c7dEE-1">
          <mxGeometry x="420" y="470" width="60" height="60" as="geometry" />
        </mxCell>
        <mxCell id="Dx2A0TEQdzkr7N3c7dEE-14" value="UD" style="whiteSpace=wrap;html=1;aspect=fixed;" vertex="1" parent="Dx2A0TEQdzkr7N3c7dEE-1">
          <mxGeometry x="-20" y="470" width="60" height="60" as="geometry" />
        </mxCell>
        <mxCell id="Dx2A0TEQdzkr7N3c7dEE-15" value="UF" style="whiteSpace=wrap;html=1;aspect=fixed;" vertex="1" parent="Dx2A0TEQdzkr7N3c7dEE-1">
          <mxGeometry x="40" y="470" width="60" height="60" as="geometry" />
        </mxCell>
        <mxCell id="Dx2A0TEQdzkr7N3c7dEE-16" value="UI" style="whiteSpace=wrap;html=1;aspect=fixed;" vertex="1" parent="Dx2A0TEQdzkr7N3c7dEE-1">
          <mxGeometry x="100" y="470" width="60" height="60" as="geometry" />
        </mxCell>
        <mxCell id="Dx2A0TEQdzkr7N3c7dEE-17" value="UK" style="whiteSpace=wrap;html=1;aspect=fixed;" vertex="1" parent="Dx2A0TEQdzkr7N3c7dEE-1">
          <mxGeometry x="160" y="470" width="60" height="60" as="geometry" />
        </mxCell>
        <mxCell id="Dx2A0TEQdzkr7N3c7dEE-18" value="TH" style="whiteSpace=wrap;html=1;aspect=fixed;" vertex="1" parent="Dx2A0TEQdzkr7N3c7dEE-1">
          <mxGeometry x="-290" y="470" width="60" height="60" as="geometry" />
        </mxCell>
        <mxCell id="Dx2A0TEQdzkr7N3c7dEE-19" value="TQ" style="whiteSpace=wrap;html=1;aspect=fixed;" vertex="1" parent="Dx2A0TEQdzkr7N3c7dEE-1">
          <mxGeometry x="-230" y="470" width="60" height="60" as="geometry" />
        </mxCell>
        <mxCell id="Dx2A0TEQdzkr7N3c7dEE-20" value="" style="whiteSpace=wrap;html=1;aspect=fixed;" vertex="1" parent="Dx2A0TEQdzkr7N3c7dEE-1">
          <mxGeometry x="-170" y="470" width="60" height="60" as="geometry" />
        </mxCell>
        <mxCell id="Dx2A0TEQdzkr7N3c7dEE-21" value="" style="whiteSpace=wrap;html=1;aspect=fixed;" vertex="1" parent="Dx2A0TEQdzkr7N3c7dEE-1">
          <mxGeometry x="-110" y="470" width="60" height="60" as="geometry" />
        </mxCell>
        <mxCell id="Dx2A0TEQdzkr7N3c7dEE-22" value="" style="endArrow=none;html=1;rounded=0;entryX=0;entryY=1;entryDx=0;entryDy=0;exitX=0.25;exitY=0;exitDx=0;exitDy=0;" edge="1" parent="Dx2A0TEQdzkr7N3c7dEE-1" source="Dx2A0TEQdzkr7N3c7dEE-15" target="Dx2A0TEQdzkr7N3c7dEE-3">
          <mxGeometry width="50" height="50" relative="1" as="geometry">
            <mxPoint x="80" y="510" as="sourcePoint" />
            <mxPoint x="130" y="460" as="targetPoint" />
          </mxGeometry>
        </mxCell>
        <mxCell id="Dx2A0TEQdzkr7N3c7dEE-23" value="" style="endArrow=none;html=1;rounded=0;entryX=0;entryY=1;entryDx=0;entryDy=0;exitX=0.5;exitY=0;exitDx=0;exitDy=0;" edge="1" parent="Dx2A0TEQdzkr7N3c7dEE-1" source="Dx2A0TEQdzkr7N3c7dEE-19" target="Dx2A0TEQdzkr7N3c7dEE-2">
          <mxGeometry width="50" height="50" relative="1" as="geometry">
            <mxPoint x="120" y="560" as="sourcePoint" />
            <mxPoint x="335" y="410" as="targetPoint" />
          </mxGeometry>
        </mxCell>
        <mxCell id="Dx2A0TEQdzkr7N3c7dEE-24" value="" style="endArrow=none;html=1;rounded=0;entryX=0;entryY=1;entryDx=0;entryDy=0;exitX=0.5;exitY=0;exitDx=0;exitDy=0;" edge="1" parent="Dx2A0TEQdzkr7N3c7dEE-1" source="Dx2A0TEQdzkr7N3c7dEE-11" target="Dx2A0TEQdzkr7N3c7dEE-4">
          <mxGeometry width="50" height="50" relative="1" as="geometry">
            <mxPoint x="190" y="520" as="sourcePoint" />
            <mxPoint x="405" y="370" as="targetPoint" />
          </mxGeometry>
        </mxCell>
        <mxCell id="Dx2A0TEQdzkr7N3c7dEE-25" value="" style="endArrow=none;html=1;rounded=0;entryX=0;entryY=1;entryDx=0;entryDy=0;exitX=0.75;exitY=0;exitDx=0;exitDy=0;" edge="1" parent="Dx2A0TEQdzkr7N3c7dEE-1" source="Dx2A0TEQdzkr7N3c7dEE-7" target="Dx2A0TEQdzkr7N3c7dEE-5">
          <mxGeometry width="50" height="50" relative="1" as="geometry">
            <mxPoint x="290" y="570" as="sourcePoint" />
            <mxPoint x="290" y="420" as="targetPoint" />
          </mxGeometry>
        </mxCell>
      </root>
    </mxGraphModel>
  </diagram>
  <diagram name="Adiciona VY" id="rM36MWeTxEFxyERWBSPd">
    <mxGraphModel dx="2208" dy="540" grid="1" gridSize="10" guides="1" tooltips="1" connect="1" arrows="1" fold="1" page="1" pageScale="1" pageWidth="827" pageHeight="1169" math="0" shadow="0">
      <root>
        <mxCell id="YqDb7QK9mqsCuQtQHgW7-0" />
        <mxCell id="YqDb7QK9mqsCuQtQHgW7-1" parent="YqDb7QK9mqsCuQtQHgW7-0" />
        <mxCell id="YqDb7QK9mqsCuQtQHgW7-2" value="UB" style="whiteSpace=wrap;html=1;aspect=fixed;" vertex="1" parent="YqDb7QK9mqsCuQtQHgW7-1">
          <mxGeometry x="130" y="260" width="60" height="60" as="geometry" />
        </mxCell>
        <mxCell id="YqDb7QK9mqsCuQtQHgW7-3" value="UU" style="whiteSpace=wrap;html=1;aspect=fixed;" vertex="1" parent="YqDb7QK9mqsCuQtQHgW7-1">
          <mxGeometry x="190" y="260" width="60" height="60" as="geometry" />
        </mxCell>
        <mxCell id="YqDb7QK9mqsCuQtQHgW7-4" value="VJ" style="whiteSpace=wrap;html=1;aspect=fixed;" vertex="1" parent="YqDb7QK9mqsCuQtQHgW7-1">
          <mxGeometry x="250" y="260" width="60" height="60" as="geometry" />
        </mxCell>
        <mxCell id="YqDb7QK9mqsCuQtQHgW7-5" value="VR" style="whiteSpace=wrap;html=1;aspect=fixed;" vertex="1" parent="YqDb7QK9mqsCuQtQHgW7-1">
          <mxGeometry x="310" y="260" width="60" height="60" as="geometry" />
        </mxCell>
        <mxCell id="YqDb7QK9mqsCuQtQHgW7-6" value="WI" style="whiteSpace=wrap;html=1;aspect=fixed;" vertex="1" parent="YqDb7QK9mqsCuQtQHgW7-1">
          <mxGeometry x="600" y="470" width="60" height="60" as="geometry" />
        </mxCell>
        <mxCell id="YqDb7QK9mqsCuQtQHgW7-7" value="WN" style="whiteSpace=wrap;html=1;aspect=fixed;" vertex="1" parent="YqDb7QK9mqsCuQtQHgW7-1">
          <mxGeometry x="660" y="470" width="60" height="60" as="geometry" />
        </mxCell>
        <mxCell id="YqDb7QK9mqsCuQtQHgW7-8" value="XB" style="whiteSpace=wrap;html=1;aspect=fixed;" vertex="1" parent="YqDb7QK9mqsCuQtQHgW7-1">
          <mxGeometry x="720" y="470" width="60" height="60" as="geometry" />
        </mxCell>
        <mxCell id="YqDb7QK9mqsCuQtQHgW7-9" value="XC" style="whiteSpace=wrap;html=1;aspect=fixed;" vertex="1" parent="YqDb7QK9mqsCuQtQHgW7-1">
          <mxGeometry x="780" y="470" width="60" height="60" as="geometry" />
        </mxCell>
        <mxCell id="YqDb7QK9mqsCuQtQHgW7-10" value="UT" style="whiteSpace=wrap;html=1;aspect=fixed;" vertex="1" parent="YqDb7QK9mqsCuQtQHgW7-1">
          <mxGeometry x="200" y="480" width="60" height="60" as="geometry" />
        </mxCell>
        <mxCell id="YqDb7QK9mqsCuQtQHgW7-11" value="VE" style="whiteSpace=wrap;html=1;aspect=fixed;" vertex="1" parent="YqDb7QK9mqsCuQtQHgW7-1">
          <mxGeometry x="260" y="480" width="60" height="60" as="geometry" />
        </mxCell>
        <mxCell id="YqDb7QK9mqsCuQtQHgW7-12" value="" style="whiteSpace=wrap;html=1;aspect=fixed;" vertex="1" parent="YqDb7QK9mqsCuQtQHgW7-1">
          <mxGeometry x="320" y="480" width="60" height="60" as="geometry" />
        </mxCell>
        <mxCell id="YqDb7QK9mqsCuQtQHgW7-13" value="" style="whiteSpace=wrap;html=1;aspect=fixed;" vertex="1" parent="YqDb7QK9mqsCuQtQHgW7-1">
          <mxGeometry x="380" y="480" width="60" height="60" as="geometry" />
        </mxCell>
        <mxCell id="YqDb7QK9mqsCuQtQHgW7-14" value="UD" style="whiteSpace=wrap;html=1;aspect=fixed;" vertex="1" parent="YqDb7QK9mqsCuQtQHgW7-1">
          <mxGeometry y="380" width="60" height="60" as="geometry" />
        </mxCell>
        <mxCell id="YqDb7QK9mqsCuQtQHgW7-15" value="UF" style="whiteSpace=wrap;html=1;aspect=fixed;" vertex="1" parent="YqDb7QK9mqsCuQtQHgW7-1">
          <mxGeometry x="60" y="380" width="60" height="60" as="geometry" />
        </mxCell>
        <mxCell id="YqDb7QK9mqsCuQtQHgW7-16" value="UI" style="whiteSpace=wrap;html=1;aspect=fixed;" vertex="1" parent="YqDb7QK9mqsCuQtQHgW7-1">
          <mxGeometry x="120" y="380" width="60" height="60" as="geometry" />
        </mxCell>
        <mxCell id="YqDb7QK9mqsCuQtQHgW7-17" value="UK" style="whiteSpace=wrap;html=1;aspect=fixed;" vertex="1" parent="YqDb7QK9mqsCuQtQHgW7-1">
          <mxGeometry x="180" y="380" width="60" height="60" as="geometry" />
        </mxCell>
        <mxCell id="YqDb7QK9mqsCuQtQHgW7-18" value="TH" style="whiteSpace=wrap;html=1;aspect=fixed;" vertex="1" parent="YqDb7QK9mqsCuQtQHgW7-1">
          <mxGeometry x="-200" y="470" width="60" height="60" as="geometry" />
        </mxCell>
        <mxCell id="YqDb7QK9mqsCuQtQHgW7-19" value="TQ" style="whiteSpace=wrap;html=1;aspect=fixed;" vertex="1" parent="YqDb7QK9mqsCuQtQHgW7-1">
          <mxGeometry x="-140" y="470" width="60" height="60" as="geometry" />
        </mxCell>
        <mxCell id="YqDb7QK9mqsCuQtQHgW7-20" value="" style="whiteSpace=wrap;html=1;aspect=fixed;" vertex="1" parent="YqDb7QK9mqsCuQtQHgW7-1">
          <mxGeometry x="-80" y="470" width="60" height="60" as="geometry" />
        </mxCell>
        <mxCell id="YqDb7QK9mqsCuQtQHgW7-21" value="" style="whiteSpace=wrap;html=1;aspect=fixed;" vertex="1" parent="YqDb7QK9mqsCuQtQHgW7-1">
          <mxGeometry x="-20" y="470" width="60" height="60" as="geometry" />
        </mxCell>
        <mxCell id="YqDb7QK9mqsCuQtQHgW7-22" value="" style="endArrow=none;html=1;rounded=0;entryX=0;entryY=1;entryDx=0;entryDy=0;exitX=0.25;exitY=0;exitDx=0;exitDy=0;" edge="1" parent="YqDb7QK9mqsCuQtQHgW7-1" source="YqDb7QK9mqsCuQtQHgW7-15" target="YqDb7QK9mqsCuQtQHgW7-3">
          <mxGeometry width="50" height="50" relative="1" as="geometry">
            <mxPoint x="80" y="510" as="sourcePoint" />
            <mxPoint x="130" y="460" as="targetPoint" />
          </mxGeometry>
        </mxCell>
        <mxCell id="YqDb7QK9mqsCuQtQHgW7-23" value="" style="endArrow=none;html=1;rounded=0;entryX=0;entryY=1;entryDx=0;entryDy=0;exitX=0.5;exitY=0;exitDx=0;exitDy=0;" edge="1" parent="YqDb7QK9mqsCuQtQHgW7-1" source="YqDb7QK9mqsCuQtQHgW7-19" target="YqDb7QK9mqsCuQtQHgW7-2">
          <mxGeometry width="50" height="50" relative="1" as="geometry">
            <mxPoint x="120" y="560" as="sourcePoint" />
            <mxPoint x="335" y="410" as="targetPoint" />
            <Array as="points">
              <mxPoint x="-40" y="350" />
            </Array>
          </mxGeometry>
        </mxCell>
        <mxCell id="YqDb7QK9mqsCuQtQHgW7-24" value="" style="endArrow=none;html=1;rounded=0;entryX=0;entryY=1;entryDx=0;entryDy=0;exitX=0.5;exitY=0;exitDx=0;exitDy=0;" edge="1" parent="YqDb7QK9mqsCuQtQHgW7-1" source="YqDb7QK9mqsCuQtQHgW7-11" target="YqDb7QK9mqsCuQtQHgW7-4">
          <mxGeometry width="50" height="50" relative="1" as="geometry">
            <mxPoint x="190" y="520" as="sourcePoint" />
            <mxPoint x="405" y="370" as="targetPoint" />
          </mxGeometry>
        </mxCell>
        <mxCell id="YqDb7QK9mqsCuQtQHgW7-25" value="" style="endArrow=none;html=1;rounded=0;entryX=1;entryY=1;entryDx=0;entryDy=0;exitX=0.75;exitY=0;exitDx=0;exitDy=0;" edge="1" parent="YqDb7QK9mqsCuQtQHgW7-1" source="YqDb7QK9mqsCuQtQHgW7-7" target="YqDb7QK9mqsCuQtQHgW7-5">
          <mxGeometry width="50" height="50" relative="1" as="geometry">
            <mxPoint x="290" y="570" as="sourcePoint" />
            <mxPoint x="290" y="420" as="targetPoint" />
            <Array as="points">
              <mxPoint x="650" y="340" />
            </Array>
          </mxGeometry>
        </mxCell>
        <mxCell id="gMwIm12m95a3yDn5xTXS-0" value="VG" style="whiteSpace=wrap;html=1;aspect=fixed;" vertex="1" parent="YqDb7QK9mqsCuQtQHgW7-1">
          <mxGeometry x="400" y="380" width="60" height="60" as="geometry" />
        </mxCell>
        <mxCell id="gMwIm12m95a3yDn5xTXS-1" value="VJ" style="whiteSpace=wrap;html=1;aspect=fixed;" vertex="1" parent="YqDb7QK9mqsCuQtQHgW7-1">
          <mxGeometry x="460" y="380" width="60" height="60" as="geometry" />
        </mxCell>
        <mxCell id="gMwIm12m95a3yDn5xTXS-2" value="VY" style="whiteSpace=wrap;html=1;aspect=fixed;" vertex="1" parent="YqDb7QK9mqsCuQtQHgW7-1">
          <mxGeometry x="520" y="380" width="60" height="60" as="geometry" />
        </mxCell>
        <mxCell id="gMwIm12m95a3yDn5xTXS-3" value="" style="whiteSpace=wrap;html=1;aspect=fixed;" vertex="1" parent="YqDb7QK9mqsCuQtQHgW7-1">
          <mxGeometry x="580" y="380" width="60" height="60" as="geometry" />
        </mxCell>
        <mxCell id="gMwIm12m95a3yDn5xTXS-5" value="" style="endArrow=none;html=1;rounded=0;entryX=0;entryY=1;entryDx=0;entryDy=0;exitX=0.25;exitY=0;exitDx=0;exitDy=0;" edge="1" parent="YqDb7QK9mqsCuQtQHgW7-1" source="gMwIm12m95a3yDn5xTXS-1" target="YqDb7QK9mqsCuQtQHgW7-5">
          <mxGeometry width="50" height="50" relative="1" as="geometry">
            <mxPoint x="330" y="550" as="sourcePoint" />
            <mxPoint x="290" y="390" as="targetPoint" />
          </mxGeometry>
        </mxCell>
      </root>
    </mxGraphModel>
  </diagram>
  <diagram name="Adiciona VO" id="gpPvieJDaGH4PHgRsToh">
    <mxGraphModel dx="2452" dy="635" grid="1" gridSize="10" guides="1" tooltips="1" connect="1" arrows="1" fold="1" page="1" pageScale="1" pageWidth="827" pageHeight="1169" math="0" shadow="0">
      <root>
        <mxCell id="y0Fl26FrCAy5NXBep7qB-0" />
        <mxCell id="y0Fl26FrCAy5NXBep7qB-1" parent="y0Fl26FrCAy5NXBep7qB-0" />
        <mxCell id="y0Fl26FrCAy5NXBep7qB-2" value="UB" style="whiteSpace=wrap;html=1;aspect=fixed;" vertex="1" parent="y0Fl26FrCAy5NXBep7qB-1">
          <mxGeometry x="130" y="260" width="60" height="60" as="geometry" />
        </mxCell>
        <mxCell id="y0Fl26FrCAy5NXBep7qB-3" value="UU" style="whiteSpace=wrap;html=1;aspect=fixed;" vertex="1" parent="y0Fl26FrCAy5NXBep7qB-1">
          <mxGeometry x="190" y="260" width="60" height="60" as="geometry" />
        </mxCell>
        <mxCell id="y0Fl26FrCAy5NXBep7qB-4" value="VG" style="whiteSpace=wrap;html=1;aspect=fixed;" vertex="1" parent="y0Fl26FrCAy5NXBep7qB-1">
          <mxGeometry x="250" y="260" width="60" height="60" as="geometry" />
        </mxCell>
        <mxCell id="y0Fl26FrCAy5NXBep7qB-5" value="VR" style="whiteSpace=wrap;html=1;aspect=fixed;" vertex="1" parent="y0Fl26FrCAy5NXBep7qB-1">
          <mxGeometry x="310" y="260" width="60" height="60" as="geometry" />
        </mxCell>
        <mxCell id="y0Fl26FrCAy5NXBep7qB-6" value="WI" style="whiteSpace=wrap;html=1;aspect=fixed;" vertex="1" parent="y0Fl26FrCAy5NXBep7qB-1">
          <mxGeometry x="600" y="470" width="60" height="60" as="geometry" />
        </mxCell>
        <mxCell id="y0Fl26FrCAy5NXBep7qB-7" value="WN" style="whiteSpace=wrap;html=1;aspect=fixed;" vertex="1" parent="y0Fl26FrCAy5NXBep7qB-1">
          <mxGeometry x="660" y="470" width="60" height="60" as="geometry" />
        </mxCell>
        <mxCell id="y0Fl26FrCAy5NXBep7qB-8" value="XB" style="whiteSpace=wrap;html=1;aspect=fixed;" vertex="1" parent="y0Fl26FrCAy5NXBep7qB-1">
          <mxGeometry x="720" y="470" width="60" height="60" as="geometry" />
        </mxCell>
        <mxCell id="y0Fl26FrCAy5NXBep7qB-9" value="XC" style="whiteSpace=wrap;html=1;aspect=fixed;" vertex="1" parent="y0Fl26FrCAy5NXBep7qB-1">
          <mxGeometry x="780" y="470" width="60" height="60" as="geometry" />
        </mxCell>
        <mxCell id="y0Fl26FrCAy5NXBep7qB-10" value="UT" style="whiteSpace=wrap;html=1;aspect=fixed;" vertex="1" parent="y0Fl26FrCAy5NXBep7qB-1">
          <mxGeometry x="200" y="480" width="60" height="60" as="geometry" />
        </mxCell>
        <mxCell id="y0Fl26FrCAy5NXBep7qB-11" value="VE" style="whiteSpace=wrap;html=1;aspect=fixed;" vertex="1" parent="y0Fl26FrCAy5NXBep7qB-1">
          <mxGeometry x="260" y="480" width="60" height="60" as="geometry" />
        </mxCell>
        <mxCell id="y0Fl26FrCAy5NXBep7qB-12" value="" style="whiteSpace=wrap;html=1;aspect=fixed;" vertex="1" parent="y0Fl26FrCAy5NXBep7qB-1">
          <mxGeometry x="320" y="480" width="60" height="60" as="geometry" />
        </mxCell>
        <mxCell id="y0Fl26FrCAy5NXBep7qB-13" value="" style="whiteSpace=wrap;html=1;aspect=fixed;" vertex="1" parent="y0Fl26FrCAy5NXBep7qB-1">
          <mxGeometry x="380" y="480" width="60" height="60" as="geometry" />
        </mxCell>
        <mxCell id="y0Fl26FrCAy5NXBep7qB-14" value="UD" style="whiteSpace=wrap;html=1;aspect=fixed;" vertex="1" parent="y0Fl26FrCAy5NXBep7qB-1">
          <mxGeometry y="380" width="60" height="60" as="geometry" />
        </mxCell>
        <mxCell id="y0Fl26FrCAy5NXBep7qB-15" value="UF" style="whiteSpace=wrap;html=1;aspect=fixed;" vertex="1" parent="y0Fl26FrCAy5NXBep7qB-1">
          <mxGeometry x="60" y="380" width="60" height="60" as="geometry" />
        </mxCell>
        <mxCell id="y0Fl26FrCAy5NXBep7qB-16" value="UI" style="whiteSpace=wrap;html=1;aspect=fixed;" vertex="1" parent="y0Fl26FrCAy5NXBep7qB-1">
          <mxGeometry x="120" y="380" width="60" height="60" as="geometry" />
        </mxCell>
        <mxCell id="y0Fl26FrCAy5NXBep7qB-17" value="UK" style="whiteSpace=wrap;html=1;aspect=fixed;" vertex="1" parent="y0Fl26FrCAy5NXBep7qB-1">
          <mxGeometry x="180" y="380" width="60" height="60" as="geometry" />
        </mxCell>
        <mxCell id="y0Fl26FrCAy5NXBep7qB-18" value="TH" style="whiteSpace=wrap;html=1;aspect=fixed;" vertex="1" parent="y0Fl26FrCAy5NXBep7qB-1">
          <mxGeometry x="-200" y="470" width="60" height="60" as="geometry" />
        </mxCell>
        <mxCell id="y0Fl26FrCAy5NXBep7qB-19" value="TQ" style="whiteSpace=wrap;html=1;aspect=fixed;" vertex="1" parent="y0Fl26FrCAy5NXBep7qB-1">
          <mxGeometry x="-140" y="470" width="60" height="60" as="geometry" />
        </mxCell>
        <mxCell id="y0Fl26FrCAy5NXBep7qB-20" value="" style="whiteSpace=wrap;html=1;aspect=fixed;" vertex="1" parent="y0Fl26FrCAy5NXBep7qB-1">
          <mxGeometry x="-80" y="470" width="60" height="60" as="geometry" />
        </mxCell>
        <mxCell id="y0Fl26FrCAy5NXBep7qB-21" value="" style="whiteSpace=wrap;html=1;aspect=fixed;" vertex="1" parent="y0Fl26FrCAy5NXBep7qB-1">
          <mxGeometry x="-20" y="470" width="60" height="60" as="geometry" />
        </mxCell>
        <mxCell id="y0Fl26FrCAy5NXBep7qB-22" value="" style="endArrow=none;html=1;rounded=0;entryX=0;entryY=1;entryDx=0;entryDy=0;exitX=0.25;exitY=0;exitDx=0;exitDy=0;" edge="1" parent="y0Fl26FrCAy5NXBep7qB-1" source="y0Fl26FrCAy5NXBep7qB-15" target="y0Fl26FrCAy5NXBep7qB-3">
          <mxGeometry width="50" height="50" relative="1" as="geometry">
            <mxPoint x="80" y="510" as="sourcePoint" />
            <mxPoint x="130" y="460" as="targetPoint" />
          </mxGeometry>
        </mxCell>
        <mxCell id="y0Fl26FrCAy5NXBep7qB-23" value="" style="endArrow=none;html=1;rounded=0;entryX=0;entryY=1;entryDx=0;entryDy=0;exitX=0.5;exitY=0;exitDx=0;exitDy=0;" edge="1" parent="y0Fl26FrCAy5NXBep7qB-1" source="y0Fl26FrCAy5NXBep7qB-19" target="y0Fl26FrCAy5NXBep7qB-2">
          <mxGeometry width="50" height="50" relative="1" as="geometry">
            <mxPoint x="120" y="560" as="sourcePoint" />
            <mxPoint x="335" y="410" as="targetPoint" />
            <Array as="points">
              <mxPoint x="-40" y="350" />
            </Array>
          </mxGeometry>
        </mxCell>
        <mxCell id="y0Fl26FrCAy5NXBep7qB-24" value="" style="endArrow=none;html=1;rounded=0;entryX=0;entryY=1;entryDx=0;entryDy=0;exitX=0.5;exitY=0;exitDx=0;exitDy=0;" edge="1" parent="y0Fl26FrCAy5NXBep7qB-1" source="y0Fl26FrCAy5NXBep7qB-11" target="y0Fl26FrCAy5NXBep7qB-4">
          <mxGeometry width="50" height="50" relative="1" as="geometry">
            <mxPoint x="190" y="520" as="sourcePoint" />
            <mxPoint x="405" y="370" as="targetPoint" />
          </mxGeometry>
        </mxCell>
        <mxCell id="y0Fl26FrCAy5NXBep7qB-25" value="" style="endArrow=none;html=1;rounded=0;entryX=1;entryY=1;entryDx=0;entryDy=0;exitX=0.75;exitY=0;exitDx=0;exitDy=0;" edge="1" parent="y0Fl26FrCAy5NXBep7qB-1" source="y0Fl26FrCAy5NXBep7qB-7" target="y0Fl26FrCAy5NXBep7qB-5">
          <mxGeometry width="50" height="50" relative="1" as="geometry">
            <mxPoint x="290" y="570" as="sourcePoint" />
            <mxPoint x="290" y="420" as="targetPoint" />
            <Array as="points">
              <mxPoint x="650" y="340" />
            </Array>
          </mxGeometry>
        </mxCell>
        <mxCell id="y0Fl26FrCAy5NXBep7qB-26" value="VJ" style="whiteSpace=wrap;html=1;aspect=fixed;" vertex="1" parent="y0Fl26FrCAy5NXBep7qB-1">
          <mxGeometry x="400" y="380" width="60" height="60" as="geometry" />
        </mxCell>
        <mxCell id="y0Fl26FrCAy5NXBep7qB-27" value="VO" style="whiteSpace=wrap;html=1;aspect=fixed;" vertex="1" parent="y0Fl26FrCAy5NXBep7qB-1">
          <mxGeometry x="460" y="380" width="60" height="60" as="geometry" />
        </mxCell>
        <mxCell id="y0Fl26FrCAy5NXBep7qB-28" value="VY" style="whiteSpace=wrap;html=1;aspect=fixed;" vertex="1" parent="y0Fl26FrCAy5NXBep7qB-1">
          <mxGeometry x="520" y="380" width="60" height="60" as="geometry" />
        </mxCell>
        <mxCell id="y0Fl26FrCAy5NXBep7qB-29" value="" style="whiteSpace=wrap;html=1;aspect=fixed;" vertex="1" parent="y0Fl26FrCAy5NXBep7qB-1">
          <mxGeometry x="580" y="380" width="60" height="60" as="geometry" />
        </mxCell>
        <mxCell id="y0Fl26FrCAy5NXBep7qB-30" value="" style="endArrow=none;html=1;rounded=0;entryX=0;entryY=1;entryDx=0;entryDy=0;exitX=0.25;exitY=0;exitDx=0;exitDy=0;" edge="1" parent="y0Fl26FrCAy5NXBep7qB-1" source="y0Fl26FrCAy5NXBep7qB-27" target="y0Fl26FrCAy5NXBep7qB-5">
          <mxGeometry width="50" height="50" relative="1" as="geometry">
            <mxPoint x="330" y="550" as="sourcePoint" />
            <mxPoint x="290" y="390" as="targetPoint" />
          </mxGeometry>
        </mxCell>
      </root>
    </mxGraphModel>
  </diagram>
  <diagram name="Adiciona VQ" id="QBkxHhRQhC2DkZFW_Ze0">
    <mxGraphModel dx="2208" dy="540" grid="1" gridSize="10" guides="1" tooltips="1" connect="1" arrows="1" fold="1" page="1" pageScale="1" pageWidth="827" pageHeight="1169" math="0" shadow="0">
      <root>
        <mxCell id="J0gyrTl31kJD_eYISJEM-0" />
        <mxCell id="J0gyrTl31kJD_eYISJEM-1" parent="J0gyrTl31kJD_eYISJEM-0" />
        <mxCell id="J0gyrTl31kJD_eYISJEM-2" value="UB" style="whiteSpace=wrap;html=1;aspect=fixed;" vertex="1" parent="J0gyrTl31kJD_eYISJEM-1">
          <mxGeometry x="130" y="260" width="60" height="60" as="geometry" />
        </mxCell>
        <mxCell id="J0gyrTl31kJD_eYISJEM-3" value="UU" style="whiteSpace=wrap;html=1;aspect=fixed;" vertex="1" parent="J0gyrTl31kJD_eYISJEM-1">
          <mxGeometry x="190" y="260" width="60" height="60" as="geometry" />
        </mxCell>
        <mxCell id="J0gyrTl31kJD_eYISJEM-4" value="VG" style="whiteSpace=wrap;html=1;aspect=fixed;" vertex="1" parent="J0gyrTl31kJD_eYISJEM-1">
          <mxGeometry x="250" y="260" width="60" height="60" as="geometry" />
        </mxCell>
        <mxCell id="J0gyrTl31kJD_eYISJEM-5" value="VR" style="whiteSpace=wrap;html=1;aspect=fixed;" vertex="1" parent="J0gyrTl31kJD_eYISJEM-1">
          <mxGeometry x="310" y="260" width="60" height="60" as="geometry" />
        </mxCell>
        <mxCell id="J0gyrTl31kJD_eYISJEM-6" value="WI" style="whiteSpace=wrap;html=1;aspect=fixed;" vertex="1" parent="J0gyrTl31kJD_eYISJEM-1">
          <mxGeometry x="600" y="470" width="60" height="60" as="geometry" />
        </mxCell>
        <mxCell id="J0gyrTl31kJD_eYISJEM-7" value="WN" style="whiteSpace=wrap;html=1;aspect=fixed;" vertex="1" parent="J0gyrTl31kJD_eYISJEM-1">
          <mxGeometry x="660" y="470" width="60" height="60" as="geometry" />
        </mxCell>
        <mxCell id="J0gyrTl31kJD_eYISJEM-8" value="XB" style="whiteSpace=wrap;html=1;aspect=fixed;" vertex="1" parent="J0gyrTl31kJD_eYISJEM-1">
          <mxGeometry x="720" y="470" width="60" height="60" as="geometry" />
        </mxCell>
        <mxCell id="J0gyrTl31kJD_eYISJEM-9" value="XC" style="whiteSpace=wrap;html=1;aspect=fixed;" vertex="1" parent="J0gyrTl31kJD_eYISJEM-1">
          <mxGeometry x="780" y="470" width="60" height="60" as="geometry" />
        </mxCell>
        <mxCell id="J0gyrTl31kJD_eYISJEM-10" value="UT" style="whiteSpace=wrap;html=1;aspect=fixed;" vertex="1" parent="J0gyrTl31kJD_eYISJEM-1">
          <mxGeometry x="200" y="480" width="60" height="60" as="geometry" />
        </mxCell>
        <mxCell id="J0gyrTl31kJD_eYISJEM-11" value="VE" style="whiteSpace=wrap;html=1;aspect=fixed;" vertex="1" parent="J0gyrTl31kJD_eYISJEM-1">
          <mxGeometry x="260" y="480" width="60" height="60" as="geometry" />
        </mxCell>
        <mxCell id="J0gyrTl31kJD_eYISJEM-12" value="" style="whiteSpace=wrap;html=1;aspect=fixed;" vertex="1" parent="J0gyrTl31kJD_eYISJEM-1">
          <mxGeometry x="320" y="480" width="60" height="60" as="geometry" />
        </mxCell>
        <mxCell id="J0gyrTl31kJD_eYISJEM-13" value="" style="whiteSpace=wrap;html=1;aspect=fixed;" vertex="1" parent="J0gyrTl31kJD_eYISJEM-1">
          <mxGeometry x="380" y="480" width="60" height="60" as="geometry" />
        </mxCell>
        <mxCell id="J0gyrTl31kJD_eYISJEM-14" value="UD" style="whiteSpace=wrap;html=1;aspect=fixed;" vertex="1" parent="J0gyrTl31kJD_eYISJEM-1">
          <mxGeometry y="380" width="60" height="60" as="geometry" />
        </mxCell>
        <mxCell id="J0gyrTl31kJD_eYISJEM-15" value="UF" style="whiteSpace=wrap;html=1;aspect=fixed;" vertex="1" parent="J0gyrTl31kJD_eYISJEM-1">
          <mxGeometry x="60" y="380" width="60" height="60" as="geometry" />
        </mxCell>
        <mxCell id="J0gyrTl31kJD_eYISJEM-16" value="UI" style="whiteSpace=wrap;html=1;aspect=fixed;" vertex="1" parent="J0gyrTl31kJD_eYISJEM-1">
          <mxGeometry x="120" y="380" width="60" height="60" as="geometry" />
        </mxCell>
        <mxCell id="J0gyrTl31kJD_eYISJEM-17" value="UK" style="whiteSpace=wrap;html=1;aspect=fixed;" vertex="1" parent="J0gyrTl31kJD_eYISJEM-1">
          <mxGeometry x="180" y="380" width="60" height="60" as="geometry" />
        </mxCell>
        <mxCell id="J0gyrTl31kJD_eYISJEM-18" value="TH" style="whiteSpace=wrap;html=1;aspect=fixed;" vertex="1" parent="J0gyrTl31kJD_eYISJEM-1">
          <mxGeometry x="-200" y="470" width="60" height="60" as="geometry" />
        </mxCell>
        <mxCell id="J0gyrTl31kJD_eYISJEM-19" value="TQ" style="whiteSpace=wrap;html=1;aspect=fixed;" vertex="1" parent="J0gyrTl31kJD_eYISJEM-1">
          <mxGeometry x="-140" y="470" width="60" height="60" as="geometry" />
        </mxCell>
        <mxCell id="J0gyrTl31kJD_eYISJEM-20" value="" style="whiteSpace=wrap;html=1;aspect=fixed;" vertex="1" parent="J0gyrTl31kJD_eYISJEM-1">
          <mxGeometry x="-80" y="470" width="60" height="60" as="geometry" />
        </mxCell>
        <mxCell id="J0gyrTl31kJD_eYISJEM-21" value="" style="whiteSpace=wrap;html=1;aspect=fixed;" vertex="1" parent="J0gyrTl31kJD_eYISJEM-1">
          <mxGeometry x="-20" y="470" width="60" height="60" as="geometry" />
        </mxCell>
        <mxCell id="J0gyrTl31kJD_eYISJEM-22" value="" style="endArrow=none;html=1;rounded=0;entryX=0;entryY=1;entryDx=0;entryDy=0;exitX=0.25;exitY=0;exitDx=0;exitDy=0;" edge="1" parent="J0gyrTl31kJD_eYISJEM-1" source="J0gyrTl31kJD_eYISJEM-15" target="J0gyrTl31kJD_eYISJEM-3">
          <mxGeometry width="50" height="50" relative="1" as="geometry">
            <mxPoint x="80" y="510" as="sourcePoint" />
            <mxPoint x="130" y="460" as="targetPoint" />
          </mxGeometry>
        </mxCell>
        <mxCell id="J0gyrTl31kJD_eYISJEM-23" value="" style="endArrow=none;html=1;rounded=0;entryX=0;entryY=1;entryDx=0;entryDy=0;exitX=0.5;exitY=0;exitDx=0;exitDy=0;" edge="1" parent="J0gyrTl31kJD_eYISJEM-1" source="J0gyrTl31kJD_eYISJEM-19" target="J0gyrTl31kJD_eYISJEM-2">
          <mxGeometry width="50" height="50" relative="1" as="geometry">
            <mxPoint x="120" y="560" as="sourcePoint" />
            <mxPoint x="335" y="410" as="targetPoint" />
            <Array as="points">
              <mxPoint x="-40" y="350" />
            </Array>
          </mxGeometry>
        </mxCell>
        <mxCell id="J0gyrTl31kJD_eYISJEM-24" value="" style="endArrow=none;html=1;rounded=0;entryX=0;entryY=1;entryDx=0;entryDy=0;exitX=0.5;exitY=0;exitDx=0;exitDy=0;" edge="1" parent="J0gyrTl31kJD_eYISJEM-1" source="J0gyrTl31kJD_eYISJEM-11" target="J0gyrTl31kJD_eYISJEM-4">
          <mxGeometry width="50" height="50" relative="1" as="geometry">
            <mxPoint x="190" y="520" as="sourcePoint" />
            <mxPoint x="405" y="370" as="targetPoint" />
          </mxGeometry>
        </mxCell>
        <mxCell id="J0gyrTl31kJD_eYISJEM-25" value="" style="endArrow=none;html=1;rounded=0;entryX=1;entryY=1;entryDx=0;entryDy=0;exitX=0.75;exitY=0;exitDx=0;exitDy=0;" edge="1" parent="J0gyrTl31kJD_eYISJEM-1" source="J0gyrTl31kJD_eYISJEM-7" target="J0gyrTl31kJD_eYISJEM-5">
          <mxGeometry width="50" height="50" relative="1" as="geometry">
            <mxPoint x="290" y="570" as="sourcePoint" />
            <mxPoint x="290" y="420" as="targetPoint" />
            <Array as="points">
              <mxPoint x="650" y="340" />
            </Array>
          </mxGeometry>
        </mxCell>
        <mxCell id="J0gyrTl31kJD_eYISJEM-26" value="VJ" style="whiteSpace=wrap;html=1;aspect=fixed;" vertex="1" parent="J0gyrTl31kJD_eYISJEM-1">
          <mxGeometry x="400" y="380" width="60" height="60" as="geometry" />
        </mxCell>
        <mxCell id="J0gyrTl31kJD_eYISJEM-27" value="VO" style="whiteSpace=wrap;html=1;aspect=fixed;" vertex="1" parent="J0gyrTl31kJD_eYISJEM-1">
          <mxGeometry x="460" y="380" width="60" height="60" as="geometry" />
        </mxCell>
        <mxCell id="J0gyrTl31kJD_eYISJEM-28" value="VQ" style="whiteSpace=wrap;html=1;aspect=fixed;" vertex="1" parent="J0gyrTl31kJD_eYISJEM-1">
          <mxGeometry x="520" y="380" width="60" height="60" as="geometry" />
        </mxCell>
        <mxCell id="J0gyrTl31kJD_eYISJEM-29" value="VY" style="whiteSpace=wrap;html=1;aspect=fixed;" vertex="1" parent="J0gyrTl31kJD_eYISJEM-1">
          <mxGeometry x="580" y="380" width="60" height="60" as="geometry" />
        </mxCell>
        <mxCell id="J0gyrTl31kJD_eYISJEM-30" value="" style="endArrow=none;html=1;rounded=0;entryX=0;entryY=1;entryDx=0;entryDy=0;exitX=0.25;exitY=0;exitDx=0;exitDy=0;" edge="1" parent="J0gyrTl31kJD_eYISJEM-1" source="J0gyrTl31kJD_eYISJEM-27" target="J0gyrTl31kJD_eYISJEM-5">
          <mxGeometry width="50" height="50" relative="1" as="geometry">
            <mxPoint x="330" y="550" as="sourcePoint" />
            <mxPoint x="290" y="390" as="targetPoint" />
          </mxGeometry>
        </mxCell>
      </root>
    </mxGraphModel>
  </diagram>
  <diagram name="Adiciona XM" id="r14hN3FzZlguQ8YJB7v5">
    <mxGraphModel dx="2800" dy="771" grid="1" gridSize="10" guides="1" tooltips="1" connect="1" arrows="1" fold="1" page="1" pageScale="1" pageWidth="827" pageHeight="1169" math="0" shadow="0">
      <root>
        <mxCell id="fAhdzPV5_QgJqrCtvlaV-0" />
        <mxCell id="fAhdzPV5_QgJqrCtvlaV-1" parent="fAhdzPV5_QgJqrCtvlaV-0" />
        <mxCell id="fAhdzPV5_QgJqrCtvlaV-2" value="UB" style="whiteSpace=wrap;html=1;aspect=fixed;" vertex="1" parent="fAhdzPV5_QgJqrCtvlaV-1">
          <mxGeometry x="90" y="260" width="60" height="60" as="geometry" />
        </mxCell>
        <mxCell id="fAhdzPV5_QgJqrCtvlaV-3" value="UU" style="whiteSpace=wrap;html=1;aspect=fixed;" vertex="1" parent="fAhdzPV5_QgJqrCtvlaV-1">
          <mxGeometry x="150" y="260" width="60" height="60" as="geometry" />
        </mxCell>
        <mxCell id="fAhdzPV5_QgJqrCtvlaV-4" value="VR" style="whiteSpace=wrap;html=1;aspect=fixed;" vertex="1" parent="fAhdzPV5_QgJqrCtvlaV-1">
          <mxGeometry x="250" y="260" width="60" height="60" as="geometry" />
        </mxCell>
        <mxCell id="fAhdzPV5_QgJqrCtvlaV-5" value="XB" style="whiteSpace=wrap;html=1;aspect=fixed;" vertex="1" parent="fAhdzPV5_QgJqrCtvlaV-1">
          <mxGeometry x="310" y="260" width="60" height="60" as="geometry" />
        </mxCell>
        <mxCell id="fAhdzPV5_QgJqrCtvlaV-6" value="VY" style="whiteSpace=wrap;html=1;aspect=fixed;" vertex="1" parent="fAhdzPV5_QgJqrCtvlaV-1">
          <mxGeometry x="470" y="470" width="60" height="60" as="geometry" />
        </mxCell>
        <mxCell id="fAhdzPV5_QgJqrCtvlaV-7" value="WI" style="whiteSpace=wrap;html=1;aspect=fixed;" vertex="1" parent="fAhdzPV5_QgJqrCtvlaV-1">
          <mxGeometry x="530" y="470" width="60" height="60" as="geometry" />
        </mxCell>
        <mxCell id="fAhdzPV5_QgJqrCtvlaV-8" value="WN" style="whiteSpace=wrap;html=1;aspect=fixed;" vertex="1" parent="fAhdzPV5_QgJqrCtvlaV-1">
          <mxGeometry x="590" y="470" width="60" height="60" as="geometry" />
        </mxCell>
        <mxCell id="fAhdzPV5_QgJqrCtvlaV-9" value="" style="whiteSpace=wrap;html=1;aspect=fixed;" vertex="1" parent="fAhdzPV5_QgJqrCtvlaV-1">
          <mxGeometry x="650" y="470" width="60" height="60" as="geometry" />
        </mxCell>
        <mxCell id="fAhdzPV5_QgJqrCtvlaV-10" value="UT" style="whiteSpace=wrap;html=1;aspect=fixed;" vertex="1" parent="fAhdzPV5_QgJqrCtvlaV-1">
          <mxGeometry x="130" y="470" width="60" height="60" as="geometry" />
        </mxCell>
        <mxCell id="fAhdzPV5_QgJqrCtvlaV-11" value="VE" style="whiteSpace=wrap;html=1;aspect=fixed;" vertex="1" parent="fAhdzPV5_QgJqrCtvlaV-1">
          <mxGeometry x="190" y="470" width="60" height="60" as="geometry" />
        </mxCell>
        <mxCell id="fAhdzPV5_QgJqrCtvlaV-12" value="" style="whiteSpace=wrap;html=1;aspect=fixed;" vertex="1" parent="fAhdzPV5_QgJqrCtvlaV-1">
          <mxGeometry x="250" y="470" width="60" height="60" as="geometry" />
        </mxCell>
        <mxCell id="fAhdzPV5_QgJqrCtvlaV-13" value="" style="whiteSpace=wrap;html=1;aspect=fixed;" vertex="1" parent="fAhdzPV5_QgJqrCtvlaV-1">
          <mxGeometry x="310" y="470" width="60" height="60" as="geometry" />
        </mxCell>
        <mxCell id="fAhdzPV5_QgJqrCtvlaV-14" value="UD" style="whiteSpace=wrap;html=1;aspect=fixed;" vertex="1" parent="fAhdzPV5_QgJqrCtvlaV-1">
          <mxGeometry x="-40" y="380" width="60" height="60" as="geometry" />
        </mxCell>
        <mxCell id="fAhdzPV5_QgJqrCtvlaV-15" value="UF" style="whiteSpace=wrap;html=1;aspect=fixed;" vertex="1" parent="fAhdzPV5_QgJqrCtvlaV-1">
          <mxGeometry x="20" y="380" width="60" height="60" as="geometry" />
        </mxCell>
        <mxCell id="fAhdzPV5_QgJqrCtvlaV-16" value="UI" style="whiteSpace=wrap;html=1;aspect=fixed;" vertex="1" parent="fAhdzPV5_QgJqrCtvlaV-1">
          <mxGeometry x="80" y="380" width="60" height="60" as="geometry" />
        </mxCell>
        <mxCell id="fAhdzPV5_QgJqrCtvlaV-17" value="UK" style="whiteSpace=wrap;html=1;aspect=fixed;" vertex="1" parent="fAhdzPV5_QgJqrCtvlaV-1">
          <mxGeometry x="140" y="380" width="60" height="60" as="geometry" />
        </mxCell>
        <mxCell id="fAhdzPV5_QgJqrCtvlaV-18" value="TH" style="whiteSpace=wrap;html=1;aspect=fixed;" vertex="1" parent="fAhdzPV5_QgJqrCtvlaV-1">
          <mxGeometry x="-200" y="470" width="60" height="60" as="geometry" />
        </mxCell>
        <mxCell id="fAhdzPV5_QgJqrCtvlaV-19" value="TQ" style="whiteSpace=wrap;html=1;aspect=fixed;" vertex="1" parent="fAhdzPV5_QgJqrCtvlaV-1">
          <mxGeometry x="-140" y="470" width="60" height="60" as="geometry" />
        </mxCell>
        <mxCell id="fAhdzPV5_QgJqrCtvlaV-20" value="" style="whiteSpace=wrap;html=1;aspect=fixed;" vertex="1" parent="fAhdzPV5_QgJqrCtvlaV-1">
          <mxGeometry x="-80" y="470" width="60" height="60" as="geometry" />
        </mxCell>
        <mxCell id="fAhdzPV5_QgJqrCtvlaV-21" value="" style="whiteSpace=wrap;html=1;aspect=fixed;" vertex="1" parent="fAhdzPV5_QgJqrCtvlaV-1">
          <mxGeometry x="-20" y="470" width="60" height="60" as="geometry" />
        </mxCell>
        <mxCell id="fAhdzPV5_QgJqrCtvlaV-22" value="" style="endArrow=none;html=1;rounded=0;exitX=0.25;exitY=0;exitDx=0;exitDy=0;" edge="1" parent="fAhdzPV5_QgJqrCtvlaV-1" source="fAhdzPV5_QgJqrCtvlaV-15">
          <mxGeometry width="50" height="50" relative="1" as="geometry">
            <mxPoint x="80" y="510" as="sourcePoint" />
            <mxPoint x="150" y="320" as="targetPoint" />
            <Array as="points">
              <mxPoint x="110" y="350" />
            </Array>
          </mxGeometry>
        </mxCell>
        <mxCell id="fAhdzPV5_QgJqrCtvlaV-23" value="" style="endArrow=none;html=1;rounded=0;entryX=0;entryY=1;entryDx=0;entryDy=0;exitX=0.5;exitY=0;exitDx=0;exitDy=0;" edge="1" parent="fAhdzPV5_QgJqrCtvlaV-1" source="fAhdzPV5_QgJqrCtvlaV-19" target="fAhdzPV5_QgJqrCtvlaV-2">
          <mxGeometry width="50" height="50" relative="1" as="geometry">
            <mxPoint x="120" y="560" as="sourcePoint" />
            <mxPoint x="335" y="410" as="targetPoint" />
            <Array as="points">
              <mxPoint x="-40" y="350" />
            </Array>
          </mxGeometry>
        </mxCell>
        <mxCell id="fAhdzPV5_QgJqrCtvlaV-24" value="" style="endArrow=none;html=1;rounded=0;entryX=1;entryY=1;entryDx=0;entryDy=0;exitX=0.5;exitY=0;exitDx=0;exitDy=0;" edge="1" parent="fAhdzPV5_QgJqrCtvlaV-1" source="fAhdzPV5_QgJqrCtvlaV-11" target="fAhdzPV5_QgJqrCtvlaV-3">
          <mxGeometry width="50" height="50" relative="1" as="geometry">
            <mxPoint x="190" y="520" as="sourcePoint" />
            <mxPoint x="405" y="370" as="targetPoint" />
          </mxGeometry>
        </mxCell>
        <mxCell id="fAhdzPV5_QgJqrCtvlaV-26" value="VJ" style="whiteSpace=wrap;html=1;aspect=fixed;" vertex="1" parent="fAhdzPV5_QgJqrCtvlaV-1">
          <mxGeometry x="270" y="380" width="60" height="60" as="geometry" />
        </mxCell>
        <mxCell id="fAhdzPV5_QgJqrCtvlaV-27" value="VO" style="whiteSpace=wrap;html=1;aspect=fixed;" vertex="1" parent="fAhdzPV5_QgJqrCtvlaV-1">
          <mxGeometry x="330" y="380" width="60" height="60" as="geometry" />
        </mxCell>
        <mxCell id="fAhdzPV5_QgJqrCtvlaV-28" value="VQ" style="whiteSpace=wrap;html=1;aspect=fixed;" vertex="1" parent="fAhdzPV5_QgJqrCtvlaV-1">
          <mxGeometry x="390" y="380" width="60" height="60" as="geometry" />
        </mxCell>
        <mxCell id="fAhdzPV5_QgJqrCtvlaV-29" value="" style="whiteSpace=wrap;html=1;aspect=fixed;" vertex="1" parent="fAhdzPV5_QgJqrCtvlaV-1">
          <mxGeometry x="450" y="380" width="60" height="60" as="geometry" />
        </mxCell>
        <mxCell id="fAhdzPV5_QgJqrCtvlaV-30" value="" style="endArrow=none;html=1;rounded=0;entryX=0;entryY=1;entryDx=0;entryDy=0;exitX=0.25;exitY=0;exitDx=0;exitDy=0;" edge="1" parent="fAhdzPV5_QgJqrCtvlaV-1" source="fAhdzPV5_QgJqrCtvlaV-27" target="fAhdzPV5_QgJqrCtvlaV-4">
          <mxGeometry width="50" height="50" relative="1" as="geometry">
            <mxPoint x="330" y="550" as="sourcePoint" />
            <mxPoint x="290" y="390" as="targetPoint" />
          </mxGeometry>
        </mxCell>
        <mxCell id="RToEi_b8NfQ-4M5EToLA-0" value="VG" style="whiteSpace=wrap;html=1;aspect=fixed;" vertex="1" parent="fAhdzPV5_QgJqrCtvlaV-1">
          <mxGeometry x="210" y="120" width="60" height="60" as="geometry" />
        </mxCell>
        <mxCell id="RToEi_b8NfQ-4M5EToLA-6" value="" style="endArrow=none;html=1;rounded=0;entryX=0;entryY=1;entryDx=0;entryDy=0;exitX=0.5;exitY=0;exitDx=0;exitDy=0;" edge="1" parent="fAhdzPV5_QgJqrCtvlaV-1" source="fAhdzPV5_QgJqrCtvlaV-3" target="RToEi_b8NfQ-4M5EToLA-0">
          <mxGeometry width="50" height="50" relative="1" as="geometry">
            <mxPoint x="330" y="590" as="sourcePoint" />
            <mxPoint x="290" y="430" as="targetPoint" />
          </mxGeometry>
        </mxCell>
        <mxCell id="RToEi_b8NfQ-4M5EToLA-7" value="" style="endArrow=none;html=1;rounded=0;entryX=1;entryY=1;entryDx=0;entryDy=0;exitX=0.75;exitY=0;exitDx=0;exitDy=0;" edge="1" parent="fAhdzPV5_QgJqrCtvlaV-1" source="fAhdzPV5_QgJqrCtvlaV-4" target="RToEi_b8NfQ-4M5EToLA-0">
          <mxGeometry width="50" height="50" relative="1" as="geometry">
            <mxPoint x="230" y="350" as="sourcePoint" />
            <mxPoint x="260" y="270" as="targetPoint" />
          </mxGeometry>
        </mxCell>
        <mxCell id="RToEi_b8NfQ-4M5EToLA-8" value="XC" style="whiteSpace=wrap;html=1;aspect=fixed;" vertex="1" parent="fAhdzPV5_QgJqrCtvlaV-1">
          <mxGeometry x="590" y="370" width="60" height="60" as="geometry" />
        </mxCell>
        <mxCell id="RToEi_b8NfQ-4M5EToLA-9" value="XM&amp;nbsp;" style="whiteSpace=wrap;html=1;aspect=fixed;" vertex="1" parent="fAhdzPV5_QgJqrCtvlaV-1">
          <mxGeometry x="650" y="370" width="60" height="60" as="geometry" />
        </mxCell>
        <mxCell id="RToEi_b8NfQ-4M5EToLA-10" value="" style="whiteSpace=wrap;html=1;aspect=fixed;" vertex="1" parent="fAhdzPV5_QgJqrCtvlaV-1">
          <mxGeometry x="710" y="370" width="60" height="60" as="geometry" />
        </mxCell>
        <mxCell id="RToEi_b8NfQ-4M5EToLA-11" value="" style="whiteSpace=wrap;html=1;aspect=fixed;" vertex="1" parent="fAhdzPV5_QgJqrCtvlaV-1">
          <mxGeometry x="770" y="370" width="60" height="60" as="geometry" />
        </mxCell>
        <mxCell id="RToEi_b8NfQ-4M5EToLA-13" value="" style="endArrow=none;html=1;rounded=0;entryX=0;entryY=1;entryDx=0;entryDy=0;exitX=0.5;exitY=0;exitDx=0;exitDy=0;" edge="1" parent="fAhdzPV5_QgJqrCtvlaV-1" source="fAhdzPV5_QgJqrCtvlaV-7" target="fAhdzPV5_QgJqrCtvlaV-5">
          <mxGeometry width="50" height="50" relative="1" as="geometry">
            <mxPoint x="680" y="460" as="sourcePoint" />
            <mxPoint x="370" y="380" as="targetPoint" />
            <Array as="points">
              <mxPoint x="500" y="350" />
            </Array>
          </mxGeometry>
        </mxCell>
        <mxCell id="RToEi_b8NfQ-4M5EToLA-14" value="" style="endArrow=none;html=1;rounded=0;entryX=1;entryY=1;entryDx=0;entryDy=0;exitX=0;exitY=0;exitDx=0;exitDy=0;" edge="1" parent="fAhdzPV5_QgJqrCtvlaV-1" source="RToEi_b8NfQ-4M5EToLA-8" target="fAhdzPV5_QgJqrCtvlaV-5">
          <mxGeometry width="50" height="50" relative="1" as="geometry">
            <mxPoint x="485" y="430" as="sourcePoint" />
            <mxPoint x="390" y="370" as="targetPoint" />
            <Array as="points">
              <mxPoint x="520" y="300" />
            </Array>
          </mxGeometry>
        </mxCell>
      </root>
    </mxGraphModel>
  </diagram>
  <diagram name="Adiciona WD" id="PQx7oOsoCSVgTJDJfYZT">
    <mxGraphModel dx="2208" dy="540" grid="1" gridSize="10" guides="1" tooltips="1" connect="1" arrows="1" fold="1" page="1" pageScale="1" pageWidth="827" pageHeight="1169" math="0" shadow="0">
      <root>
        <mxCell id="iSWpa3joDLbB3TIIIKfd-0" />
        <mxCell id="iSWpa3joDLbB3TIIIKfd-1" parent="iSWpa3joDLbB3TIIIKfd-0" />
        <mxCell id="iSWpa3joDLbB3TIIIKfd-2" value="UB" style="whiteSpace=wrap;html=1;aspect=fixed;" vertex="1" parent="iSWpa3joDLbB3TIIIKfd-1">
          <mxGeometry x="90" y="260" width="60" height="60" as="geometry" />
        </mxCell>
        <mxCell id="iSWpa3joDLbB3TIIIKfd-3" value="UU" style="whiteSpace=wrap;html=1;aspect=fixed;" vertex="1" parent="iSWpa3joDLbB3TIIIKfd-1">
          <mxGeometry x="150" y="260" width="60" height="60" as="geometry" />
        </mxCell>
        <mxCell id="iSWpa3joDLbB3TIIIKfd-4" value="VR" style="whiteSpace=wrap;html=1;aspect=fixed;" vertex="1" parent="iSWpa3joDLbB3TIIIKfd-1">
          <mxGeometry x="250" y="260" width="60" height="60" as="geometry" />
        </mxCell>
        <mxCell id="iSWpa3joDLbB3TIIIKfd-5" value="XB" style="whiteSpace=wrap;html=1;aspect=fixed;" vertex="1" parent="iSWpa3joDLbB3TIIIKfd-1">
          <mxGeometry x="310" y="260" width="60" height="60" as="geometry" />
        </mxCell>
        <mxCell id="iSWpa3joDLbB3TIIIKfd-6" value="VY" style="whiteSpace=wrap;html=1;aspect=fixed;" vertex="1" parent="iSWpa3joDLbB3TIIIKfd-1">
          <mxGeometry x="470" y="470" width="60" height="60" as="geometry" />
        </mxCell>
        <mxCell id="iSWpa3joDLbB3TIIIKfd-7" value="WD" style="whiteSpace=wrap;html=1;aspect=fixed;" vertex="1" parent="iSWpa3joDLbB3TIIIKfd-1">
          <mxGeometry x="530" y="470" width="60" height="60" as="geometry" />
        </mxCell>
        <mxCell id="iSWpa3joDLbB3TIIIKfd-8" value="WI" style="whiteSpace=wrap;html=1;aspect=fixed;" vertex="1" parent="iSWpa3joDLbB3TIIIKfd-1">
          <mxGeometry x="590" y="470" width="60" height="60" as="geometry" />
        </mxCell>
        <mxCell id="iSWpa3joDLbB3TIIIKfd-9" value="WN" style="whiteSpace=wrap;html=1;aspect=fixed;" vertex="1" parent="iSWpa3joDLbB3TIIIKfd-1">
          <mxGeometry x="650" y="470" width="60" height="60" as="geometry" />
        </mxCell>
        <mxCell id="iSWpa3joDLbB3TIIIKfd-10" value="UT" style="whiteSpace=wrap;html=1;aspect=fixed;" vertex="1" parent="iSWpa3joDLbB3TIIIKfd-1">
          <mxGeometry x="130" y="470" width="60" height="60" as="geometry" />
        </mxCell>
        <mxCell id="iSWpa3joDLbB3TIIIKfd-11" value="VE" style="whiteSpace=wrap;html=1;aspect=fixed;" vertex="1" parent="iSWpa3joDLbB3TIIIKfd-1">
          <mxGeometry x="190" y="470" width="60" height="60" as="geometry" />
        </mxCell>
        <mxCell id="iSWpa3joDLbB3TIIIKfd-12" value="" style="whiteSpace=wrap;html=1;aspect=fixed;" vertex="1" parent="iSWpa3joDLbB3TIIIKfd-1">
          <mxGeometry x="250" y="470" width="60" height="60" as="geometry" />
        </mxCell>
        <mxCell id="iSWpa3joDLbB3TIIIKfd-13" value="" style="whiteSpace=wrap;html=1;aspect=fixed;" vertex="1" parent="iSWpa3joDLbB3TIIIKfd-1">
          <mxGeometry x="310" y="470" width="60" height="60" as="geometry" />
        </mxCell>
        <mxCell id="iSWpa3joDLbB3TIIIKfd-14" value="UD" style="whiteSpace=wrap;html=1;aspect=fixed;" vertex="1" parent="iSWpa3joDLbB3TIIIKfd-1">
          <mxGeometry x="-40" y="380" width="60" height="60" as="geometry" />
        </mxCell>
        <mxCell id="iSWpa3joDLbB3TIIIKfd-15" value="UF" style="whiteSpace=wrap;html=1;aspect=fixed;" vertex="1" parent="iSWpa3joDLbB3TIIIKfd-1">
          <mxGeometry x="20" y="380" width="60" height="60" as="geometry" />
        </mxCell>
        <mxCell id="iSWpa3joDLbB3TIIIKfd-16" value="UI" style="whiteSpace=wrap;html=1;aspect=fixed;" vertex="1" parent="iSWpa3joDLbB3TIIIKfd-1">
          <mxGeometry x="80" y="380" width="60" height="60" as="geometry" />
        </mxCell>
        <mxCell id="iSWpa3joDLbB3TIIIKfd-17" value="UK" style="whiteSpace=wrap;html=1;aspect=fixed;" vertex="1" parent="iSWpa3joDLbB3TIIIKfd-1">
          <mxGeometry x="140" y="380" width="60" height="60" as="geometry" />
        </mxCell>
        <mxCell id="iSWpa3joDLbB3TIIIKfd-18" value="TH" style="whiteSpace=wrap;html=1;aspect=fixed;" vertex="1" parent="iSWpa3joDLbB3TIIIKfd-1">
          <mxGeometry x="-200" y="470" width="60" height="60" as="geometry" />
        </mxCell>
        <mxCell id="iSWpa3joDLbB3TIIIKfd-19" value="TQ" style="whiteSpace=wrap;html=1;aspect=fixed;" vertex="1" parent="iSWpa3joDLbB3TIIIKfd-1">
          <mxGeometry x="-140" y="470" width="60" height="60" as="geometry" />
        </mxCell>
        <mxCell id="iSWpa3joDLbB3TIIIKfd-20" value="" style="whiteSpace=wrap;html=1;aspect=fixed;" vertex="1" parent="iSWpa3joDLbB3TIIIKfd-1">
          <mxGeometry x="-80" y="470" width="60" height="60" as="geometry" />
        </mxCell>
        <mxCell id="iSWpa3joDLbB3TIIIKfd-21" value="" style="whiteSpace=wrap;html=1;aspect=fixed;" vertex="1" parent="iSWpa3joDLbB3TIIIKfd-1">
          <mxGeometry x="-20" y="470" width="60" height="60" as="geometry" />
        </mxCell>
        <mxCell id="iSWpa3joDLbB3TIIIKfd-22" value="" style="endArrow=none;html=1;rounded=0;exitX=0.25;exitY=0;exitDx=0;exitDy=0;" edge="1" parent="iSWpa3joDLbB3TIIIKfd-1" source="iSWpa3joDLbB3TIIIKfd-15">
          <mxGeometry width="50" height="50" relative="1" as="geometry">
            <mxPoint x="80" y="510" as="sourcePoint" />
            <mxPoint x="150" y="320" as="targetPoint" />
            <Array as="points">
              <mxPoint x="110" y="350" />
            </Array>
          </mxGeometry>
        </mxCell>
        <mxCell id="iSWpa3joDLbB3TIIIKfd-23" value="" style="endArrow=none;html=1;rounded=0;entryX=0;entryY=1;entryDx=0;entryDy=0;exitX=0.5;exitY=0;exitDx=0;exitDy=0;" edge="1" parent="iSWpa3joDLbB3TIIIKfd-1" source="iSWpa3joDLbB3TIIIKfd-19" target="iSWpa3joDLbB3TIIIKfd-2">
          <mxGeometry width="50" height="50" relative="1" as="geometry">
            <mxPoint x="120" y="560" as="sourcePoint" />
            <mxPoint x="335" y="410" as="targetPoint" />
            <Array as="points">
              <mxPoint x="-40" y="350" />
            </Array>
          </mxGeometry>
        </mxCell>
        <mxCell id="iSWpa3joDLbB3TIIIKfd-24" value="" style="endArrow=none;html=1;rounded=0;entryX=1;entryY=1;entryDx=0;entryDy=0;exitX=0.5;exitY=0;exitDx=0;exitDy=0;" edge="1" parent="iSWpa3joDLbB3TIIIKfd-1" source="iSWpa3joDLbB3TIIIKfd-11" target="iSWpa3joDLbB3TIIIKfd-3">
          <mxGeometry width="50" height="50" relative="1" as="geometry">
            <mxPoint x="190" y="520" as="sourcePoint" />
            <mxPoint x="405" y="370" as="targetPoint" />
          </mxGeometry>
        </mxCell>
        <mxCell id="iSWpa3joDLbB3TIIIKfd-25" value="VJ" style="whiteSpace=wrap;html=1;aspect=fixed;" vertex="1" parent="iSWpa3joDLbB3TIIIKfd-1">
          <mxGeometry x="270" y="380" width="60" height="60" as="geometry" />
        </mxCell>
        <mxCell id="iSWpa3joDLbB3TIIIKfd-26" value="VO" style="whiteSpace=wrap;html=1;aspect=fixed;" vertex="1" parent="iSWpa3joDLbB3TIIIKfd-1">
          <mxGeometry x="330" y="380" width="60" height="60" as="geometry" />
        </mxCell>
        <mxCell id="iSWpa3joDLbB3TIIIKfd-27" value="VQ" style="whiteSpace=wrap;html=1;aspect=fixed;" vertex="1" parent="iSWpa3joDLbB3TIIIKfd-1">
          <mxGeometry x="390" y="380" width="60" height="60" as="geometry" />
        </mxCell>
        <mxCell id="iSWpa3joDLbB3TIIIKfd-28" value="" style="whiteSpace=wrap;html=1;aspect=fixed;" vertex="1" parent="iSWpa3joDLbB3TIIIKfd-1">
          <mxGeometry x="450" y="380" width="60" height="60" as="geometry" />
        </mxCell>
        <mxCell id="iSWpa3joDLbB3TIIIKfd-29" value="" style="endArrow=none;html=1;rounded=0;entryX=0;entryY=1;entryDx=0;entryDy=0;exitX=0.25;exitY=0;exitDx=0;exitDy=0;" edge="1" parent="iSWpa3joDLbB3TIIIKfd-1" source="iSWpa3joDLbB3TIIIKfd-26" target="iSWpa3joDLbB3TIIIKfd-4">
          <mxGeometry width="50" height="50" relative="1" as="geometry">
            <mxPoint x="330" y="550" as="sourcePoint" />
            <mxPoint x="290" y="390" as="targetPoint" />
          </mxGeometry>
        </mxCell>
        <mxCell id="iSWpa3joDLbB3TIIIKfd-30" value="VG" style="whiteSpace=wrap;html=1;aspect=fixed;" vertex="1" parent="iSWpa3joDLbB3TIIIKfd-1">
          <mxGeometry x="210" y="120" width="60" height="60" as="geometry" />
        </mxCell>
        <mxCell id="iSWpa3joDLbB3TIIIKfd-31" value="" style="endArrow=none;html=1;rounded=0;entryX=0;entryY=1;entryDx=0;entryDy=0;exitX=0.5;exitY=0;exitDx=0;exitDy=0;" edge="1" parent="iSWpa3joDLbB3TIIIKfd-1" source="iSWpa3joDLbB3TIIIKfd-3" target="iSWpa3joDLbB3TIIIKfd-30">
          <mxGeometry width="50" height="50" relative="1" as="geometry">
            <mxPoint x="330" y="590" as="sourcePoint" />
            <mxPoint x="290" y="430" as="targetPoint" />
          </mxGeometry>
        </mxCell>
        <mxCell id="iSWpa3joDLbB3TIIIKfd-32" value="" style="endArrow=none;html=1;rounded=0;entryX=1;entryY=1;entryDx=0;entryDy=0;exitX=0.75;exitY=0;exitDx=0;exitDy=0;" edge="1" parent="iSWpa3joDLbB3TIIIKfd-1" source="iSWpa3joDLbB3TIIIKfd-4" target="iSWpa3joDLbB3TIIIKfd-30">
          <mxGeometry width="50" height="50" relative="1" as="geometry">
            <mxPoint x="230" y="350" as="sourcePoint" />
            <mxPoint x="260" y="270" as="targetPoint" />
          </mxGeometry>
        </mxCell>
        <mxCell id="iSWpa3joDLbB3TIIIKfd-33" value="XC" style="whiteSpace=wrap;html=1;aspect=fixed;" vertex="1" parent="iSWpa3joDLbB3TIIIKfd-1">
          <mxGeometry x="590" y="370" width="60" height="60" as="geometry" />
        </mxCell>
        <mxCell id="iSWpa3joDLbB3TIIIKfd-34" value="XM&amp;nbsp;" style="whiteSpace=wrap;html=1;aspect=fixed;" vertex="1" parent="iSWpa3joDLbB3TIIIKfd-1">
          <mxGeometry x="650" y="370" width="60" height="60" as="geometry" />
        </mxCell>
        <mxCell id="iSWpa3joDLbB3TIIIKfd-35" value="" style="whiteSpace=wrap;html=1;aspect=fixed;" vertex="1" parent="iSWpa3joDLbB3TIIIKfd-1">
          <mxGeometry x="710" y="370" width="60" height="60" as="geometry" />
        </mxCell>
        <mxCell id="iSWpa3joDLbB3TIIIKfd-36" value="" style="whiteSpace=wrap;html=1;aspect=fixed;" vertex="1" parent="iSWpa3joDLbB3TIIIKfd-1">
          <mxGeometry x="770" y="370" width="60" height="60" as="geometry" />
        </mxCell>
        <mxCell id="iSWpa3joDLbB3TIIIKfd-37" value="" style="endArrow=none;html=1;rounded=0;entryX=0;entryY=1;entryDx=0;entryDy=0;exitX=0.5;exitY=0;exitDx=0;exitDy=0;" edge="1" parent="iSWpa3joDLbB3TIIIKfd-1" source="iSWpa3joDLbB3TIIIKfd-7" target="iSWpa3joDLbB3TIIIKfd-5">
          <mxGeometry width="50" height="50" relative="1" as="geometry">
            <mxPoint x="680" y="460" as="sourcePoint" />
            <mxPoint x="370" y="380" as="targetPoint" />
            <Array as="points">
              <mxPoint x="500" y="350" />
            </Array>
          </mxGeometry>
        </mxCell>
        <mxCell id="iSWpa3joDLbB3TIIIKfd-38" value="" style="endArrow=none;html=1;rounded=0;entryX=1;entryY=1;entryDx=0;entryDy=0;exitX=0;exitY=0;exitDx=0;exitDy=0;" edge="1" parent="iSWpa3joDLbB3TIIIKfd-1" source="iSWpa3joDLbB3TIIIKfd-33" target="iSWpa3joDLbB3TIIIKfd-5">
          <mxGeometry width="50" height="50" relative="1" as="geometry">
            <mxPoint x="485" y="430" as="sourcePoint" />
            <mxPoint x="390" y="370" as="targetPoint" />
            <Array as="points">
              <mxPoint x="520" y="300" />
            </Array>
          </mxGeometry>
        </mxCell>
      </root>
    </mxGraphModel>
  </diagram>
  <diagram name="Remove WI" id="WZj9EDhi6xqEhzyMpG9D">
    <mxGraphModel dx="2800" dy="771" grid="1" gridSize="10" guides="1" tooltips="1" connect="1" arrows="1" fold="1" page="1" pageScale="1" pageWidth="827" pageHeight="1169" math="0" shadow="0">
      <root>
        <mxCell id="uuDA5sLhMg8e9KAtiClg-0" />
        <mxCell id="uuDA5sLhMg8e9KAtiClg-1" parent="uuDA5sLhMg8e9KAtiClg-0" />
        <mxCell id="uuDA5sLhMg8e9KAtiClg-2" value="UB" style="whiteSpace=wrap;html=1;aspect=fixed;" vertex="1" parent="uuDA5sLhMg8e9KAtiClg-1">
          <mxGeometry x="90" y="260" width="60" height="60" as="geometry" />
        </mxCell>
        <mxCell id="uuDA5sLhMg8e9KAtiClg-3" value="UU" style="whiteSpace=wrap;html=1;aspect=fixed;" vertex="1" parent="uuDA5sLhMg8e9KAtiClg-1">
          <mxGeometry x="150" y="260" width="60" height="60" as="geometry" />
        </mxCell>
        <mxCell id="uuDA5sLhMg8e9KAtiClg-4" value="VR" style="whiteSpace=wrap;html=1;aspect=fixed;" vertex="1" parent="uuDA5sLhMg8e9KAtiClg-1">
          <mxGeometry x="250" y="260" width="60" height="60" as="geometry" />
        </mxCell>
        <mxCell id="uuDA5sLhMg8e9KAtiClg-5" value="XB" style="whiteSpace=wrap;html=1;aspect=fixed;" vertex="1" parent="uuDA5sLhMg8e9KAtiClg-1">
          <mxGeometry x="310" y="260" width="60" height="60" as="geometry" />
        </mxCell>
        <mxCell id="uuDA5sLhMg8e9KAtiClg-6" value="VY" style="whiteSpace=wrap;html=1;aspect=fixed;" vertex="1" parent="uuDA5sLhMg8e9KAtiClg-1">
          <mxGeometry x="470" y="470" width="60" height="60" as="geometry" />
        </mxCell>
        <mxCell id="uuDA5sLhMg8e9KAtiClg-7" value="WD" style="whiteSpace=wrap;html=1;aspect=fixed;" vertex="1" parent="uuDA5sLhMg8e9KAtiClg-1">
          <mxGeometry x="530" y="470" width="60" height="60" as="geometry" />
        </mxCell>
        <mxCell id="uuDA5sLhMg8e9KAtiClg-8" value="WN" style="whiteSpace=wrap;html=1;aspect=fixed;" vertex="1" parent="uuDA5sLhMg8e9KAtiClg-1">
          <mxGeometry x="590" y="470" width="60" height="60" as="geometry" />
        </mxCell>
        <mxCell id="uuDA5sLhMg8e9KAtiClg-9" value="" style="whiteSpace=wrap;html=1;aspect=fixed;" vertex="1" parent="uuDA5sLhMg8e9KAtiClg-1">
          <mxGeometry x="650" y="470" width="60" height="60" as="geometry" />
        </mxCell>
        <mxCell id="uuDA5sLhMg8e9KAtiClg-10" value="UT" style="whiteSpace=wrap;html=1;aspect=fixed;" vertex="1" parent="uuDA5sLhMg8e9KAtiClg-1">
          <mxGeometry x="130" y="470" width="60" height="60" as="geometry" />
        </mxCell>
        <mxCell id="uuDA5sLhMg8e9KAtiClg-11" value="VE" style="whiteSpace=wrap;html=1;aspect=fixed;" vertex="1" parent="uuDA5sLhMg8e9KAtiClg-1">
          <mxGeometry x="190" y="470" width="60" height="60" as="geometry" />
        </mxCell>
        <mxCell id="uuDA5sLhMg8e9KAtiClg-12" value="" style="whiteSpace=wrap;html=1;aspect=fixed;" vertex="1" parent="uuDA5sLhMg8e9KAtiClg-1">
          <mxGeometry x="250" y="470" width="60" height="60" as="geometry" />
        </mxCell>
        <mxCell id="uuDA5sLhMg8e9KAtiClg-13" value="" style="whiteSpace=wrap;html=1;aspect=fixed;" vertex="1" parent="uuDA5sLhMg8e9KAtiClg-1">
          <mxGeometry x="310" y="470" width="60" height="60" as="geometry" />
        </mxCell>
        <mxCell id="uuDA5sLhMg8e9KAtiClg-14" value="UD" style="whiteSpace=wrap;html=1;aspect=fixed;" vertex="1" parent="uuDA5sLhMg8e9KAtiClg-1">
          <mxGeometry x="-40" y="380" width="60" height="60" as="geometry" />
        </mxCell>
        <mxCell id="uuDA5sLhMg8e9KAtiClg-15" value="UF" style="whiteSpace=wrap;html=1;aspect=fixed;" vertex="1" parent="uuDA5sLhMg8e9KAtiClg-1">
          <mxGeometry x="20" y="380" width="60" height="60" as="geometry" />
        </mxCell>
        <mxCell id="uuDA5sLhMg8e9KAtiClg-16" value="UI" style="whiteSpace=wrap;html=1;aspect=fixed;" vertex="1" parent="uuDA5sLhMg8e9KAtiClg-1">
          <mxGeometry x="80" y="380" width="60" height="60" as="geometry" />
        </mxCell>
        <mxCell id="uuDA5sLhMg8e9KAtiClg-17" value="UK" style="whiteSpace=wrap;html=1;aspect=fixed;" vertex="1" parent="uuDA5sLhMg8e9KAtiClg-1">
          <mxGeometry x="140" y="380" width="60" height="60" as="geometry" />
        </mxCell>
        <mxCell id="uuDA5sLhMg8e9KAtiClg-18" value="TH" style="whiteSpace=wrap;html=1;aspect=fixed;" vertex="1" parent="uuDA5sLhMg8e9KAtiClg-1">
          <mxGeometry x="-200" y="470" width="60" height="60" as="geometry" />
        </mxCell>
        <mxCell id="uuDA5sLhMg8e9KAtiClg-19" value="TQ" style="whiteSpace=wrap;html=1;aspect=fixed;" vertex="1" parent="uuDA5sLhMg8e9KAtiClg-1">
          <mxGeometry x="-140" y="470" width="60" height="60" as="geometry" />
        </mxCell>
        <mxCell id="uuDA5sLhMg8e9KAtiClg-20" value="" style="whiteSpace=wrap;html=1;aspect=fixed;" vertex="1" parent="uuDA5sLhMg8e9KAtiClg-1">
          <mxGeometry x="-80" y="470" width="60" height="60" as="geometry" />
        </mxCell>
        <mxCell id="uuDA5sLhMg8e9KAtiClg-21" value="" style="whiteSpace=wrap;html=1;aspect=fixed;" vertex="1" parent="uuDA5sLhMg8e9KAtiClg-1">
          <mxGeometry x="-20" y="470" width="60" height="60" as="geometry" />
        </mxCell>
        <mxCell id="uuDA5sLhMg8e9KAtiClg-22" value="" style="endArrow=none;html=1;rounded=0;exitX=0.25;exitY=0;exitDx=0;exitDy=0;" edge="1" parent="uuDA5sLhMg8e9KAtiClg-1" source="uuDA5sLhMg8e9KAtiClg-15">
          <mxGeometry width="50" height="50" relative="1" as="geometry">
            <mxPoint x="80" y="510" as="sourcePoint" />
            <mxPoint x="150" y="320" as="targetPoint" />
            <Array as="points">
              <mxPoint x="110" y="350" />
            </Array>
          </mxGeometry>
        </mxCell>
        <mxCell id="uuDA5sLhMg8e9KAtiClg-23" value="" style="endArrow=none;html=1;rounded=0;entryX=0;entryY=1;entryDx=0;entryDy=0;exitX=0.5;exitY=0;exitDx=0;exitDy=0;" edge="1" parent="uuDA5sLhMg8e9KAtiClg-1" source="uuDA5sLhMg8e9KAtiClg-19" target="uuDA5sLhMg8e9KAtiClg-2">
          <mxGeometry width="50" height="50" relative="1" as="geometry">
            <mxPoint x="120" y="560" as="sourcePoint" />
            <mxPoint x="335" y="410" as="targetPoint" />
            <Array as="points">
              <mxPoint x="-40" y="350" />
            </Array>
          </mxGeometry>
        </mxCell>
        <mxCell id="uuDA5sLhMg8e9KAtiClg-24" value="" style="endArrow=none;html=1;rounded=0;entryX=1;entryY=1;entryDx=0;entryDy=0;exitX=0.5;exitY=0;exitDx=0;exitDy=0;" edge="1" parent="uuDA5sLhMg8e9KAtiClg-1" source="uuDA5sLhMg8e9KAtiClg-11" target="uuDA5sLhMg8e9KAtiClg-3">
          <mxGeometry width="50" height="50" relative="1" as="geometry">
            <mxPoint x="190" y="520" as="sourcePoint" />
            <mxPoint x="405" y="370" as="targetPoint" />
          </mxGeometry>
        </mxCell>
        <mxCell id="uuDA5sLhMg8e9KAtiClg-25" value="VJ" style="whiteSpace=wrap;html=1;aspect=fixed;" vertex="1" parent="uuDA5sLhMg8e9KAtiClg-1">
          <mxGeometry x="270" y="380" width="60" height="60" as="geometry" />
        </mxCell>
        <mxCell id="uuDA5sLhMg8e9KAtiClg-26" value="VO" style="whiteSpace=wrap;html=1;aspect=fixed;" vertex="1" parent="uuDA5sLhMg8e9KAtiClg-1">
          <mxGeometry x="330" y="380" width="60" height="60" as="geometry" />
        </mxCell>
        <mxCell id="uuDA5sLhMg8e9KAtiClg-27" value="VQ" style="whiteSpace=wrap;html=1;aspect=fixed;" vertex="1" parent="uuDA5sLhMg8e9KAtiClg-1">
          <mxGeometry x="390" y="380" width="60" height="60" as="geometry" />
        </mxCell>
        <mxCell id="uuDA5sLhMg8e9KAtiClg-28" value="" style="whiteSpace=wrap;html=1;aspect=fixed;" vertex="1" parent="uuDA5sLhMg8e9KAtiClg-1">
          <mxGeometry x="450" y="380" width="60" height="60" as="geometry" />
        </mxCell>
        <mxCell id="uuDA5sLhMg8e9KAtiClg-29" value="" style="endArrow=none;html=1;rounded=0;entryX=0;entryY=1;entryDx=0;entryDy=0;exitX=0.25;exitY=0;exitDx=0;exitDy=0;" edge="1" parent="uuDA5sLhMg8e9KAtiClg-1" source="uuDA5sLhMg8e9KAtiClg-26" target="uuDA5sLhMg8e9KAtiClg-4">
          <mxGeometry width="50" height="50" relative="1" as="geometry">
            <mxPoint x="330" y="550" as="sourcePoint" />
            <mxPoint x="290" y="390" as="targetPoint" />
          </mxGeometry>
        </mxCell>
        <mxCell id="uuDA5sLhMg8e9KAtiClg-30" value="VG" style="whiteSpace=wrap;html=1;aspect=fixed;" vertex="1" parent="uuDA5sLhMg8e9KAtiClg-1">
          <mxGeometry x="210" y="120" width="60" height="60" as="geometry" />
        </mxCell>
        <mxCell id="uuDA5sLhMg8e9KAtiClg-31" value="" style="endArrow=none;html=1;rounded=0;entryX=0;entryY=1;entryDx=0;entryDy=0;exitX=0.5;exitY=0;exitDx=0;exitDy=0;" edge="1" parent="uuDA5sLhMg8e9KAtiClg-1" source="uuDA5sLhMg8e9KAtiClg-3" target="uuDA5sLhMg8e9KAtiClg-30">
          <mxGeometry width="50" height="50" relative="1" as="geometry">
            <mxPoint x="330" y="590" as="sourcePoint" />
            <mxPoint x="290" y="430" as="targetPoint" />
          </mxGeometry>
        </mxCell>
        <mxCell id="uuDA5sLhMg8e9KAtiClg-32" value="" style="endArrow=none;html=1;rounded=0;entryX=1;entryY=1;entryDx=0;entryDy=0;exitX=0.75;exitY=0;exitDx=0;exitDy=0;" edge="1" parent="uuDA5sLhMg8e9KAtiClg-1" source="uuDA5sLhMg8e9KAtiClg-4" target="uuDA5sLhMg8e9KAtiClg-30">
          <mxGeometry width="50" height="50" relative="1" as="geometry">
            <mxPoint x="230" y="350" as="sourcePoint" />
            <mxPoint x="260" y="270" as="targetPoint" />
          </mxGeometry>
        </mxCell>
        <mxCell id="uuDA5sLhMg8e9KAtiClg-33" value="XC" style="whiteSpace=wrap;html=1;aspect=fixed;" vertex="1" parent="uuDA5sLhMg8e9KAtiClg-1">
          <mxGeometry x="590" y="370" width="60" height="60" as="geometry" />
        </mxCell>
        <mxCell id="uuDA5sLhMg8e9KAtiClg-34" value="XM&amp;nbsp;" style="whiteSpace=wrap;html=1;aspect=fixed;" vertex="1" parent="uuDA5sLhMg8e9KAtiClg-1">
          <mxGeometry x="650" y="370" width="60" height="60" as="geometry" />
        </mxCell>
        <mxCell id="uuDA5sLhMg8e9KAtiClg-35" value="" style="whiteSpace=wrap;html=1;aspect=fixed;" vertex="1" parent="uuDA5sLhMg8e9KAtiClg-1">
          <mxGeometry x="710" y="370" width="60" height="60" as="geometry" />
        </mxCell>
        <mxCell id="uuDA5sLhMg8e9KAtiClg-36" value="" style="whiteSpace=wrap;html=1;aspect=fixed;" vertex="1" parent="uuDA5sLhMg8e9KAtiClg-1">
          <mxGeometry x="770" y="370" width="60" height="60" as="geometry" />
        </mxCell>
        <mxCell id="uuDA5sLhMg8e9KAtiClg-37" value="" style="endArrow=none;html=1;rounded=0;entryX=0;entryY=1;entryDx=0;entryDy=0;exitX=0.5;exitY=0;exitDx=0;exitDy=0;" edge="1" parent="uuDA5sLhMg8e9KAtiClg-1" source="uuDA5sLhMg8e9KAtiClg-7" target="uuDA5sLhMg8e9KAtiClg-5">
          <mxGeometry width="50" height="50" relative="1" as="geometry">
            <mxPoint x="680" y="460" as="sourcePoint" />
            <mxPoint x="370" y="380" as="targetPoint" />
            <Array as="points">
              <mxPoint x="500" y="350" />
            </Array>
          </mxGeometry>
        </mxCell>
        <mxCell id="uuDA5sLhMg8e9KAtiClg-38" value="" style="endArrow=none;html=1;rounded=0;entryX=1;entryY=1;entryDx=0;entryDy=0;exitX=0;exitY=0;exitDx=0;exitDy=0;" edge="1" parent="uuDA5sLhMg8e9KAtiClg-1" source="uuDA5sLhMg8e9KAtiClg-33" target="uuDA5sLhMg8e9KAtiClg-5">
          <mxGeometry width="50" height="50" relative="1" as="geometry">
            <mxPoint x="485" y="430" as="sourcePoint" />
            <mxPoint x="390" y="370" as="targetPoint" />
            <Array as="points">
              <mxPoint x="520" y="300" />
            </Array>
          </mxGeometry>
        </mxCell>
      </root>
    </mxGraphModel>
  </diagram>
  <diagram name="Remove VY" id="DL49zM76Bb6Is5ecHXpM">
    <mxGraphModel dx="2452" dy="635" grid="1" gridSize="10" guides="1" tooltips="1" connect="1" arrows="1" fold="1" page="1" pageScale="1" pageWidth="827" pageHeight="1169" math="0" shadow="0">
      <root>
        <mxCell id="bz0jwx_XoYyqqV-_J-0T-0" />
        <mxCell id="bz0jwx_XoYyqqV-_J-0T-1" parent="bz0jwx_XoYyqqV-_J-0T-0" />
        <mxCell id="bz0jwx_XoYyqqV-_J-0T-2" value="UB" style="whiteSpace=wrap;html=1;aspect=fixed;" vertex="1" parent="bz0jwx_XoYyqqV-_J-0T-1">
          <mxGeometry x="90" y="260" width="60" height="60" as="geometry" />
        </mxCell>
        <mxCell id="bz0jwx_XoYyqqV-_J-0T-3" value="UU" style="whiteSpace=wrap;html=1;aspect=fixed;" vertex="1" parent="bz0jwx_XoYyqqV-_J-0T-1">
          <mxGeometry x="150" y="260" width="60" height="60" as="geometry" />
        </mxCell>
        <mxCell id="bz0jwx_XoYyqqV-_J-0T-4" value="VR" style="whiteSpace=wrap;html=1;aspect=fixed;" vertex="1" parent="bz0jwx_XoYyqqV-_J-0T-1">
          <mxGeometry x="250" y="260" width="60" height="60" as="geometry" />
        </mxCell>
        <mxCell id="bz0jwx_XoYyqqV-_J-0T-5" value="XB" style="whiteSpace=wrap;html=1;aspect=fixed;" vertex="1" parent="bz0jwx_XoYyqqV-_J-0T-1">
          <mxGeometry x="310" y="260" width="60" height="60" as="geometry" />
        </mxCell>
        <mxCell id="bz0jwx_XoYyqqV-_J-0T-6" value="WD" style="whiteSpace=wrap;html=1;aspect=fixed;" vertex="1" parent="bz0jwx_XoYyqqV-_J-0T-1">
          <mxGeometry x="470" y="470" width="60" height="60" as="geometry" />
        </mxCell>
        <mxCell id="bz0jwx_XoYyqqV-_J-0T-7" value="WN" style="whiteSpace=wrap;html=1;aspect=fixed;" vertex="1" parent="bz0jwx_XoYyqqV-_J-0T-1">
          <mxGeometry x="530" y="470" width="60" height="60" as="geometry" />
        </mxCell>
        <mxCell id="bz0jwx_XoYyqqV-_J-0T-8" value="" style="whiteSpace=wrap;html=1;aspect=fixed;" vertex="1" parent="bz0jwx_XoYyqqV-_J-0T-1">
          <mxGeometry x="590" y="470" width="60" height="60" as="geometry" />
        </mxCell>
        <mxCell id="bz0jwx_XoYyqqV-_J-0T-9" value="" style="whiteSpace=wrap;html=1;aspect=fixed;" vertex="1" parent="bz0jwx_XoYyqqV-_J-0T-1">
          <mxGeometry x="650" y="470" width="60" height="60" as="geometry" />
        </mxCell>
        <mxCell id="bz0jwx_XoYyqqV-_J-0T-10" value="UT" style="whiteSpace=wrap;html=1;aspect=fixed;" vertex="1" parent="bz0jwx_XoYyqqV-_J-0T-1">
          <mxGeometry x="130" y="470" width="60" height="60" as="geometry" />
        </mxCell>
        <mxCell id="bz0jwx_XoYyqqV-_J-0T-11" value="VE" style="whiteSpace=wrap;html=1;aspect=fixed;" vertex="1" parent="bz0jwx_XoYyqqV-_J-0T-1">
          <mxGeometry x="190" y="470" width="60" height="60" as="geometry" />
        </mxCell>
        <mxCell id="bz0jwx_XoYyqqV-_J-0T-12" value="" style="whiteSpace=wrap;html=1;aspect=fixed;" vertex="1" parent="bz0jwx_XoYyqqV-_J-0T-1">
          <mxGeometry x="250" y="470" width="60" height="60" as="geometry" />
        </mxCell>
        <mxCell id="bz0jwx_XoYyqqV-_J-0T-13" value="" style="whiteSpace=wrap;html=1;aspect=fixed;" vertex="1" parent="bz0jwx_XoYyqqV-_J-0T-1">
          <mxGeometry x="310" y="470" width="60" height="60" as="geometry" />
        </mxCell>
        <mxCell id="bz0jwx_XoYyqqV-_J-0T-14" value="UD" style="whiteSpace=wrap;html=1;aspect=fixed;" vertex="1" parent="bz0jwx_XoYyqqV-_J-0T-1">
          <mxGeometry x="-40" y="380" width="60" height="60" as="geometry" />
        </mxCell>
        <mxCell id="bz0jwx_XoYyqqV-_J-0T-15" value="UF" style="whiteSpace=wrap;html=1;aspect=fixed;" vertex="1" parent="bz0jwx_XoYyqqV-_J-0T-1">
          <mxGeometry x="20" y="380" width="60" height="60" as="geometry" />
        </mxCell>
        <mxCell id="bz0jwx_XoYyqqV-_J-0T-16" value="UI" style="whiteSpace=wrap;html=1;aspect=fixed;" vertex="1" parent="bz0jwx_XoYyqqV-_J-0T-1">
          <mxGeometry x="80" y="380" width="60" height="60" as="geometry" />
        </mxCell>
        <mxCell id="bz0jwx_XoYyqqV-_J-0T-17" value="UK" style="whiteSpace=wrap;html=1;aspect=fixed;" vertex="1" parent="bz0jwx_XoYyqqV-_J-0T-1">
          <mxGeometry x="140" y="380" width="60" height="60" as="geometry" />
        </mxCell>
        <mxCell id="bz0jwx_XoYyqqV-_J-0T-18" value="TH" style="whiteSpace=wrap;html=1;aspect=fixed;" vertex="1" parent="bz0jwx_XoYyqqV-_J-0T-1">
          <mxGeometry x="-200" y="470" width="60" height="60" as="geometry" />
        </mxCell>
        <mxCell id="bz0jwx_XoYyqqV-_J-0T-19" value="TQ" style="whiteSpace=wrap;html=1;aspect=fixed;" vertex="1" parent="bz0jwx_XoYyqqV-_J-0T-1">
          <mxGeometry x="-140" y="470" width="60" height="60" as="geometry" />
        </mxCell>
        <mxCell id="bz0jwx_XoYyqqV-_J-0T-20" value="" style="whiteSpace=wrap;html=1;aspect=fixed;" vertex="1" parent="bz0jwx_XoYyqqV-_J-0T-1">
          <mxGeometry x="-80" y="470" width="60" height="60" as="geometry" />
        </mxCell>
        <mxCell id="bz0jwx_XoYyqqV-_J-0T-21" value="" style="whiteSpace=wrap;html=1;aspect=fixed;" vertex="1" parent="bz0jwx_XoYyqqV-_J-0T-1">
          <mxGeometry x="-20" y="470" width="60" height="60" as="geometry" />
        </mxCell>
        <mxCell id="bz0jwx_XoYyqqV-_J-0T-22" value="" style="endArrow=none;html=1;rounded=0;exitX=0.25;exitY=0;exitDx=0;exitDy=0;" edge="1" parent="bz0jwx_XoYyqqV-_J-0T-1" source="bz0jwx_XoYyqqV-_J-0T-15">
          <mxGeometry width="50" height="50" relative="1" as="geometry">
            <mxPoint x="80" y="510" as="sourcePoint" />
            <mxPoint x="150" y="320" as="targetPoint" />
            <Array as="points">
              <mxPoint x="110" y="350" />
            </Array>
          </mxGeometry>
        </mxCell>
        <mxCell id="bz0jwx_XoYyqqV-_J-0T-23" value="" style="endArrow=none;html=1;rounded=0;entryX=0;entryY=1;entryDx=0;entryDy=0;exitX=0.5;exitY=0;exitDx=0;exitDy=0;" edge="1" parent="bz0jwx_XoYyqqV-_J-0T-1" source="bz0jwx_XoYyqqV-_J-0T-19" target="bz0jwx_XoYyqqV-_J-0T-2">
          <mxGeometry width="50" height="50" relative="1" as="geometry">
            <mxPoint x="120" y="560" as="sourcePoint" />
            <mxPoint x="335" y="410" as="targetPoint" />
            <Array as="points">
              <mxPoint x="-40" y="350" />
            </Array>
          </mxGeometry>
        </mxCell>
        <mxCell id="bz0jwx_XoYyqqV-_J-0T-24" value="" style="endArrow=none;html=1;rounded=0;entryX=1;entryY=1;entryDx=0;entryDy=0;exitX=0.5;exitY=0;exitDx=0;exitDy=0;" edge="1" parent="bz0jwx_XoYyqqV-_J-0T-1" source="bz0jwx_XoYyqqV-_J-0T-11" target="bz0jwx_XoYyqqV-_J-0T-3">
          <mxGeometry width="50" height="50" relative="1" as="geometry">
            <mxPoint x="190" y="520" as="sourcePoint" />
            <mxPoint x="405" y="370" as="targetPoint" />
          </mxGeometry>
        </mxCell>
        <mxCell id="bz0jwx_XoYyqqV-_J-0T-25" value="VJ" style="whiteSpace=wrap;html=1;aspect=fixed;" vertex="1" parent="bz0jwx_XoYyqqV-_J-0T-1">
          <mxGeometry x="270" y="380" width="60" height="60" as="geometry" />
        </mxCell>
        <mxCell id="bz0jwx_XoYyqqV-_J-0T-26" value="VO" style="whiteSpace=wrap;html=1;aspect=fixed;" vertex="1" parent="bz0jwx_XoYyqqV-_J-0T-1">
          <mxGeometry x="330" y="380" width="60" height="60" as="geometry" />
        </mxCell>
        <mxCell id="bz0jwx_XoYyqqV-_J-0T-27" value="VQ" style="whiteSpace=wrap;html=1;aspect=fixed;" vertex="1" parent="bz0jwx_XoYyqqV-_J-0T-1">
          <mxGeometry x="390" y="380" width="60" height="60" as="geometry" />
        </mxCell>
        <mxCell id="bz0jwx_XoYyqqV-_J-0T-28" value="" style="whiteSpace=wrap;html=1;aspect=fixed;" vertex="1" parent="bz0jwx_XoYyqqV-_J-0T-1">
          <mxGeometry x="450" y="380" width="60" height="60" as="geometry" />
        </mxCell>
        <mxCell id="bz0jwx_XoYyqqV-_J-0T-29" value="" style="endArrow=none;html=1;rounded=0;entryX=0;entryY=1;entryDx=0;entryDy=0;exitX=0.25;exitY=0;exitDx=0;exitDy=0;" edge="1" parent="bz0jwx_XoYyqqV-_J-0T-1" source="bz0jwx_XoYyqqV-_J-0T-26" target="bz0jwx_XoYyqqV-_J-0T-4">
          <mxGeometry width="50" height="50" relative="1" as="geometry">
            <mxPoint x="330" y="550" as="sourcePoint" />
            <mxPoint x="290" y="390" as="targetPoint" />
          </mxGeometry>
        </mxCell>
        <mxCell id="bz0jwx_XoYyqqV-_J-0T-30" value="VG" style="whiteSpace=wrap;html=1;aspect=fixed;" vertex="1" parent="bz0jwx_XoYyqqV-_J-0T-1">
          <mxGeometry x="210" y="120" width="60" height="60" as="geometry" />
        </mxCell>
        <mxCell id="bz0jwx_XoYyqqV-_J-0T-31" value="" style="endArrow=none;html=1;rounded=0;entryX=0;entryY=1;entryDx=0;entryDy=0;exitX=0.5;exitY=0;exitDx=0;exitDy=0;" edge="1" parent="bz0jwx_XoYyqqV-_J-0T-1" source="bz0jwx_XoYyqqV-_J-0T-3" target="bz0jwx_XoYyqqV-_J-0T-30">
          <mxGeometry width="50" height="50" relative="1" as="geometry">
            <mxPoint x="330" y="590" as="sourcePoint" />
            <mxPoint x="290" y="430" as="targetPoint" />
          </mxGeometry>
        </mxCell>
        <mxCell id="bz0jwx_XoYyqqV-_J-0T-32" value="" style="endArrow=none;html=1;rounded=0;entryX=1;entryY=1;entryDx=0;entryDy=0;exitX=0.75;exitY=0;exitDx=0;exitDy=0;" edge="1" parent="bz0jwx_XoYyqqV-_J-0T-1" source="bz0jwx_XoYyqqV-_J-0T-4" target="bz0jwx_XoYyqqV-_J-0T-30">
          <mxGeometry width="50" height="50" relative="1" as="geometry">
            <mxPoint x="230" y="350" as="sourcePoint" />
            <mxPoint x="260" y="270" as="targetPoint" />
          </mxGeometry>
        </mxCell>
        <mxCell id="bz0jwx_XoYyqqV-_J-0T-33" value="XC" style="whiteSpace=wrap;html=1;aspect=fixed;" vertex="1" parent="bz0jwx_XoYyqqV-_J-0T-1">
          <mxGeometry x="590" y="370" width="60" height="60" as="geometry" />
        </mxCell>
        <mxCell id="bz0jwx_XoYyqqV-_J-0T-34" value="XM&amp;nbsp;" style="whiteSpace=wrap;html=1;aspect=fixed;" vertex="1" parent="bz0jwx_XoYyqqV-_J-0T-1">
          <mxGeometry x="650" y="370" width="60" height="60" as="geometry" />
        </mxCell>
        <mxCell id="bz0jwx_XoYyqqV-_J-0T-35" value="" style="whiteSpace=wrap;html=1;aspect=fixed;" vertex="1" parent="bz0jwx_XoYyqqV-_J-0T-1">
          <mxGeometry x="710" y="370" width="60" height="60" as="geometry" />
        </mxCell>
        <mxCell id="bz0jwx_XoYyqqV-_J-0T-36" value="" style="whiteSpace=wrap;html=1;aspect=fixed;" vertex="1" parent="bz0jwx_XoYyqqV-_J-0T-1">
          <mxGeometry x="770" y="370" width="60" height="60" as="geometry" />
        </mxCell>
        <mxCell id="bz0jwx_XoYyqqV-_J-0T-37" value="" style="endArrow=none;html=1;rounded=0;entryX=0;entryY=1;entryDx=0;entryDy=0;exitX=0.5;exitY=0;exitDx=0;exitDy=0;" edge="1" parent="bz0jwx_XoYyqqV-_J-0T-1" source="bz0jwx_XoYyqqV-_J-0T-7" target="bz0jwx_XoYyqqV-_J-0T-5">
          <mxGeometry width="50" height="50" relative="1" as="geometry">
            <mxPoint x="680" y="460" as="sourcePoint" />
            <mxPoint x="370" y="380" as="targetPoint" />
            <Array as="points">
              <mxPoint x="500" y="350" />
            </Array>
          </mxGeometry>
        </mxCell>
        <mxCell id="bz0jwx_XoYyqqV-_J-0T-38" value="" style="endArrow=none;html=1;rounded=0;entryX=1;entryY=1;entryDx=0;entryDy=0;exitX=0;exitY=0;exitDx=0;exitDy=0;" edge="1" parent="bz0jwx_XoYyqqV-_J-0T-1" source="bz0jwx_XoYyqqV-_J-0T-33" target="bz0jwx_XoYyqqV-_J-0T-5">
          <mxGeometry width="50" height="50" relative="1" as="geometry">
            <mxPoint x="485" y="430" as="sourcePoint" />
            <mxPoint x="390" y="370" as="targetPoint" />
            <Array as="points">
              <mxPoint x="520" y="300" />
            </Array>
          </mxGeometry>
        </mxCell>
      </root>
    </mxGraphModel>
  </diagram>
  <diagram name="Remove UF" id="SvrNXUDDQN5Xam5FSxm0">
    <mxGraphModel dx="2208" dy="540" grid="1" gridSize="10" guides="1" tooltips="1" connect="1" arrows="1" fold="1" page="1" pageScale="1" pageWidth="827" pageHeight="1169" math="0" shadow="0">
      <root>
        <mxCell id="yjsp-Ian-GHwtERMjGYv-0" />
        <mxCell id="yjsp-Ian-GHwtERMjGYv-1" parent="yjsp-Ian-GHwtERMjGYv-0" />
        <mxCell id="yjsp-Ian-GHwtERMjGYv-2" value="UB" style="whiteSpace=wrap;html=1;aspect=fixed;" vertex="1" parent="yjsp-Ian-GHwtERMjGYv-1">
          <mxGeometry x="90" y="260" width="60" height="60" as="geometry" />
        </mxCell>
        <mxCell id="yjsp-Ian-GHwtERMjGYv-3" value="UU" style="whiteSpace=wrap;html=1;aspect=fixed;" vertex="1" parent="yjsp-Ian-GHwtERMjGYv-1">
          <mxGeometry x="150" y="260" width="60" height="60" as="geometry" />
        </mxCell>
        <mxCell id="yjsp-Ian-GHwtERMjGYv-4" value="VR" style="whiteSpace=wrap;html=1;aspect=fixed;" vertex="1" parent="yjsp-Ian-GHwtERMjGYv-1">
          <mxGeometry x="250" y="260" width="60" height="60" as="geometry" />
        </mxCell>
        <mxCell id="yjsp-Ian-GHwtERMjGYv-5" value="XB" style="whiteSpace=wrap;html=1;aspect=fixed;" vertex="1" parent="yjsp-Ian-GHwtERMjGYv-1">
          <mxGeometry x="310" y="260" width="60" height="60" as="geometry" />
        </mxCell>
        <mxCell id="yjsp-Ian-GHwtERMjGYv-6" value="WD" style="whiteSpace=wrap;html=1;aspect=fixed;" vertex="1" parent="yjsp-Ian-GHwtERMjGYv-1">
          <mxGeometry x="470" y="470" width="60" height="60" as="geometry" />
        </mxCell>
        <mxCell id="yjsp-Ian-GHwtERMjGYv-7" value="WN" style="whiteSpace=wrap;html=1;aspect=fixed;" vertex="1" parent="yjsp-Ian-GHwtERMjGYv-1">
          <mxGeometry x="530" y="470" width="60" height="60" as="geometry" />
        </mxCell>
        <mxCell id="yjsp-Ian-GHwtERMjGYv-8" value="" style="whiteSpace=wrap;html=1;aspect=fixed;" vertex="1" parent="yjsp-Ian-GHwtERMjGYv-1">
          <mxGeometry x="590" y="470" width="60" height="60" as="geometry" />
        </mxCell>
        <mxCell id="yjsp-Ian-GHwtERMjGYv-9" value="" style="whiteSpace=wrap;html=1;aspect=fixed;" vertex="1" parent="yjsp-Ian-GHwtERMjGYv-1">
          <mxGeometry x="650" y="470" width="60" height="60" as="geometry" />
        </mxCell>
        <mxCell id="yjsp-Ian-GHwtERMjGYv-10" value="UT" style="whiteSpace=wrap;html=1;aspect=fixed;" vertex="1" parent="yjsp-Ian-GHwtERMjGYv-1">
          <mxGeometry x="130" y="470" width="60" height="60" as="geometry" />
        </mxCell>
        <mxCell id="yjsp-Ian-GHwtERMjGYv-11" value="VE" style="whiteSpace=wrap;html=1;aspect=fixed;" vertex="1" parent="yjsp-Ian-GHwtERMjGYv-1">
          <mxGeometry x="190" y="470" width="60" height="60" as="geometry" />
        </mxCell>
        <mxCell id="yjsp-Ian-GHwtERMjGYv-12" value="" style="whiteSpace=wrap;html=1;aspect=fixed;" vertex="1" parent="yjsp-Ian-GHwtERMjGYv-1">
          <mxGeometry x="250" y="470" width="60" height="60" as="geometry" />
        </mxCell>
        <mxCell id="yjsp-Ian-GHwtERMjGYv-13" value="" style="whiteSpace=wrap;html=1;aspect=fixed;" vertex="1" parent="yjsp-Ian-GHwtERMjGYv-1">
          <mxGeometry x="310" y="470" width="60" height="60" as="geometry" />
        </mxCell>
        <mxCell id="yjsp-Ian-GHwtERMjGYv-14" value="UD" style="whiteSpace=wrap;html=1;aspect=fixed;" vertex="1" parent="yjsp-Ian-GHwtERMjGYv-1">
          <mxGeometry x="-40" y="380" width="60" height="60" as="geometry" />
        </mxCell>
        <mxCell id="yjsp-Ian-GHwtERMjGYv-15" value="UI" style="whiteSpace=wrap;html=1;aspect=fixed;" vertex="1" parent="yjsp-Ian-GHwtERMjGYv-1">
          <mxGeometry x="20" y="380" width="60" height="60" as="geometry" />
        </mxCell>
        <mxCell id="yjsp-Ian-GHwtERMjGYv-16" value="UK" style="whiteSpace=wrap;html=1;aspect=fixed;" vertex="1" parent="yjsp-Ian-GHwtERMjGYv-1">
          <mxGeometry x="80" y="380" width="60" height="60" as="geometry" />
        </mxCell>
        <mxCell id="yjsp-Ian-GHwtERMjGYv-17" value="" style="whiteSpace=wrap;html=1;aspect=fixed;" vertex="1" parent="yjsp-Ian-GHwtERMjGYv-1">
          <mxGeometry x="140" y="380" width="60" height="60" as="geometry" />
        </mxCell>
        <mxCell id="yjsp-Ian-GHwtERMjGYv-18" value="TH" style="whiteSpace=wrap;html=1;aspect=fixed;" vertex="1" parent="yjsp-Ian-GHwtERMjGYv-1">
          <mxGeometry x="-200" y="470" width="60" height="60" as="geometry" />
        </mxCell>
        <mxCell id="yjsp-Ian-GHwtERMjGYv-19" value="TQ" style="whiteSpace=wrap;html=1;aspect=fixed;" vertex="1" parent="yjsp-Ian-GHwtERMjGYv-1">
          <mxGeometry x="-140" y="470" width="60" height="60" as="geometry" />
        </mxCell>
        <mxCell id="yjsp-Ian-GHwtERMjGYv-20" value="" style="whiteSpace=wrap;html=1;aspect=fixed;" vertex="1" parent="yjsp-Ian-GHwtERMjGYv-1">
          <mxGeometry x="-80" y="470" width="60" height="60" as="geometry" />
        </mxCell>
        <mxCell id="yjsp-Ian-GHwtERMjGYv-21" value="" style="whiteSpace=wrap;html=1;aspect=fixed;" vertex="1" parent="yjsp-Ian-GHwtERMjGYv-1">
          <mxGeometry x="-20" y="470" width="60" height="60" as="geometry" />
        </mxCell>
        <mxCell id="yjsp-Ian-GHwtERMjGYv-22" value="" style="endArrow=none;html=1;rounded=0;exitX=0.25;exitY=0;exitDx=0;exitDy=0;" edge="1" parent="yjsp-Ian-GHwtERMjGYv-1" source="yjsp-Ian-GHwtERMjGYv-15">
          <mxGeometry width="50" height="50" relative="1" as="geometry">
            <mxPoint x="80" y="510" as="sourcePoint" />
            <mxPoint x="150" y="320" as="targetPoint" />
            <Array as="points">
              <mxPoint x="110" y="350" />
            </Array>
          </mxGeometry>
        </mxCell>
        <mxCell id="yjsp-Ian-GHwtERMjGYv-23" value="" style="endArrow=none;html=1;rounded=0;entryX=0;entryY=1;entryDx=0;entryDy=0;exitX=0.5;exitY=0;exitDx=0;exitDy=0;" edge="1" parent="yjsp-Ian-GHwtERMjGYv-1" source="yjsp-Ian-GHwtERMjGYv-19" target="yjsp-Ian-GHwtERMjGYv-2">
          <mxGeometry width="50" height="50" relative="1" as="geometry">
            <mxPoint x="120" y="560" as="sourcePoint" />
            <mxPoint x="335" y="410" as="targetPoint" />
            <Array as="points">
              <mxPoint x="-40" y="350" />
            </Array>
          </mxGeometry>
        </mxCell>
        <mxCell id="yjsp-Ian-GHwtERMjGYv-24" value="" style="endArrow=none;html=1;rounded=0;entryX=1;entryY=1;entryDx=0;entryDy=0;exitX=0.5;exitY=0;exitDx=0;exitDy=0;" edge="1" parent="yjsp-Ian-GHwtERMjGYv-1" source="yjsp-Ian-GHwtERMjGYv-11" target="yjsp-Ian-GHwtERMjGYv-3">
          <mxGeometry width="50" height="50" relative="1" as="geometry">
            <mxPoint x="190" y="520" as="sourcePoint" />
            <mxPoint x="405" y="370" as="targetPoint" />
          </mxGeometry>
        </mxCell>
        <mxCell id="yjsp-Ian-GHwtERMjGYv-25" value="VJ" style="whiteSpace=wrap;html=1;aspect=fixed;" vertex="1" parent="yjsp-Ian-GHwtERMjGYv-1">
          <mxGeometry x="270" y="380" width="60" height="60" as="geometry" />
        </mxCell>
        <mxCell id="yjsp-Ian-GHwtERMjGYv-26" value="VO" style="whiteSpace=wrap;html=1;aspect=fixed;" vertex="1" parent="yjsp-Ian-GHwtERMjGYv-1">
          <mxGeometry x="330" y="380" width="60" height="60" as="geometry" />
        </mxCell>
        <mxCell id="yjsp-Ian-GHwtERMjGYv-27" value="VQ" style="whiteSpace=wrap;html=1;aspect=fixed;" vertex="1" parent="yjsp-Ian-GHwtERMjGYv-1">
          <mxGeometry x="390" y="380" width="60" height="60" as="geometry" />
        </mxCell>
        <mxCell id="yjsp-Ian-GHwtERMjGYv-28" value="" style="whiteSpace=wrap;html=1;aspect=fixed;" vertex="1" parent="yjsp-Ian-GHwtERMjGYv-1">
          <mxGeometry x="450" y="380" width="60" height="60" as="geometry" />
        </mxCell>
        <mxCell id="yjsp-Ian-GHwtERMjGYv-29" value="" style="endArrow=none;html=1;rounded=0;entryX=0;entryY=1;entryDx=0;entryDy=0;exitX=0.25;exitY=0;exitDx=0;exitDy=0;" edge="1" parent="yjsp-Ian-GHwtERMjGYv-1" source="yjsp-Ian-GHwtERMjGYv-26" target="yjsp-Ian-GHwtERMjGYv-4">
          <mxGeometry width="50" height="50" relative="1" as="geometry">
            <mxPoint x="330" y="550" as="sourcePoint" />
            <mxPoint x="290" y="390" as="targetPoint" />
          </mxGeometry>
        </mxCell>
        <mxCell id="yjsp-Ian-GHwtERMjGYv-30" value="VG" style="whiteSpace=wrap;html=1;aspect=fixed;" vertex="1" parent="yjsp-Ian-GHwtERMjGYv-1">
          <mxGeometry x="210" y="120" width="60" height="60" as="geometry" />
        </mxCell>
        <mxCell id="yjsp-Ian-GHwtERMjGYv-31" value="" style="endArrow=none;html=1;rounded=0;entryX=0;entryY=1;entryDx=0;entryDy=0;exitX=0.5;exitY=0;exitDx=0;exitDy=0;" edge="1" parent="yjsp-Ian-GHwtERMjGYv-1" source="yjsp-Ian-GHwtERMjGYv-3" target="yjsp-Ian-GHwtERMjGYv-30">
          <mxGeometry width="50" height="50" relative="1" as="geometry">
            <mxPoint x="330" y="590" as="sourcePoint" />
            <mxPoint x="290" y="430" as="targetPoint" />
          </mxGeometry>
        </mxCell>
        <mxCell id="yjsp-Ian-GHwtERMjGYv-32" value="" style="endArrow=none;html=1;rounded=0;entryX=1;entryY=1;entryDx=0;entryDy=0;exitX=0.75;exitY=0;exitDx=0;exitDy=0;" edge="1" parent="yjsp-Ian-GHwtERMjGYv-1" source="yjsp-Ian-GHwtERMjGYv-4" target="yjsp-Ian-GHwtERMjGYv-30">
          <mxGeometry width="50" height="50" relative="1" as="geometry">
            <mxPoint x="230" y="350" as="sourcePoint" />
            <mxPoint x="260" y="270" as="targetPoint" />
          </mxGeometry>
        </mxCell>
        <mxCell id="yjsp-Ian-GHwtERMjGYv-33" value="XC" style="whiteSpace=wrap;html=1;aspect=fixed;" vertex="1" parent="yjsp-Ian-GHwtERMjGYv-1">
          <mxGeometry x="590" y="370" width="60" height="60" as="geometry" />
        </mxCell>
        <mxCell id="yjsp-Ian-GHwtERMjGYv-34" value="XM&amp;nbsp;" style="whiteSpace=wrap;html=1;aspect=fixed;" vertex="1" parent="yjsp-Ian-GHwtERMjGYv-1">
          <mxGeometry x="650" y="370" width="60" height="60" as="geometry" />
        </mxCell>
        <mxCell id="yjsp-Ian-GHwtERMjGYv-35" value="" style="whiteSpace=wrap;html=1;aspect=fixed;" vertex="1" parent="yjsp-Ian-GHwtERMjGYv-1">
          <mxGeometry x="710" y="370" width="60" height="60" as="geometry" />
        </mxCell>
        <mxCell id="yjsp-Ian-GHwtERMjGYv-36" value="" style="whiteSpace=wrap;html=1;aspect=fixed;" vertex="1" parent="yjsp-Ian-GHwtERMjGYv-1">
          <mxGeometry x="770" y="370" width="60" height="60" as="geometry" />
        </mxCell>
        <mxCell id="yjsp-Ian-GHwtERMjGYv-37" value="" style="endArrow=none;html=1;rounded=0;entryX=0;entryY=1;entryDx=0;entryDy=0;exitX=0.5;exitY=0;exitDx=0;exitDy=0;" edge="1" parent="yjsp-Ian-GHwtERMjGYv-1" source="yjsp-Ian-GHwtERMjGYv-7" target="yjsp-Ian-GHwtERMjGYv-5">
          <mxGeometry width="50" height="50" relative="1" as="geometry">
            <mxPoint x="680" y="460" as="sourcePoint" />
            <mxPoint x="370" y="380" as="targetPoint" />
            <Array as="points">
              <mxPoint x="500" y="350" />
            </Array>
          </mxGeometry>
        </mxCell>
        <mxCell id="yjsp-Ian-GHwtERMjGYv-38" value="" style="endArrow=none;html=1;rounded=0;entryX=1;entryY=1;entryDx=0;entryDy=0;exitX=0;exitY=0;exitDx=0;exitDy=0;" edge="1" parent="yjsp-Ian-GHwtERMjGYv-1" source="yjsp-Ian-GHwtERMjGYv-33" target="yjsp-Ian-GHwtERMjGYv-5">
          <mxGeometry width="50" height="50" relative="1" as="geometry">
            <mxPoint x="485" y="430" as="sourcePoint" />
            <mxPoint x="390" y="370" as="targetPoint" />
            <Array as="points">
              <mxPoint x="520" y="300" />
            </Array>
          </mxGeometry>
        </mxCell>
      </root>
    </mxGraphModel>
  </diagram>
</mxfile>
